<?xml version="1.0" encoding="utf-8"?>
<!-- Generator: Adobe Illustrator 21.1.0, SVG Export Plug-In . SVG Version: 6.00 Build 0)  -->
<svg version="1.1" xmlns="http://www.w3.org/2000/svg" xmlns:xlink="http://www.w3.org/1999/xlink" x="0px" y="0px"
	 viewBox="0 0 73.5 75" style="enable-background:new 0 0 73.5 75;" xml:space="preserve">
<style type="text/css">
	.st0{fill:#FCF4F0;}
	.st1{fill:#CB6D35;}
</style>
<g id="Homepage">
</g>
<g id="Factoring">
	<g>
		<circle class="st0" cx="36.8" cy="37.5" r="33.8"/>
		<g>
			<g>
				<path class="st1" d="M37.6,53.9c-9.1,0-16.4-7.4-16.4-16.4c0-9.1,7.4-16.4,16.4-16.4s16.4,7.4,16.4,16.4
					C54.1,46.6,46.7,53.9,37.6,53.9z M37.6,22.6c-8.2,0-14.9,6.7-14.9,14.9s6.7,14.9,14.9,14.9s14.9-6.7,14.9-14.9
					S45.9,22.6,37.6,22.6z"/>
			</g>
			<g>
				<path class="st1" d="M37.6,59.7c-3.2,0-6.4-0.7-9.3-2c-0.4-0.2-0.5-0.6-0.4-1c0.2-0.4,0.6-0.5,1-0.4c2.7,1.3,5.6,1.9,8.7,1.9
					c11.4,0,20.7-9.3,20.7-20.7c0-3-0.6-5.9-1.9-8.6c-0.2-0.4,0-0.8,0.4-1c0.4-0.2,0.8,0,1,0.4c1.3,2.9,2,6,2,9.2
					C59.8,49.7,49.9,59.7,37.6,59.7z"/>
			</g>
			<g>
				<path class="st1" d="M18.3,47.5c-0.3,0-0.5-0.2-0.7-0.4c-1.4-3-2.1-6.2-2.1-9.5c0-12.2,10-22.2,22.2-22.2c3.4,0,6.7,0.7,9.7,2.2
					c0.4,0.2,0.5,0.6,0.3,1c-0.2,0.4-0.6,0.5-1,0.3c-2.8-1.4-5.9-2.1-9-2.1c-11.4,0-20.7,9.3-20.7,20.7c0,3.1,0.7,6.1,2,8.9
					c0.2,0.4,0,0.8-0.4,1C18.5,47.4,18.4,47.5,18.3,47.5z"/>
			</g>
			<g>
				<path class="st1" d="M22.4,55.2c-1.6,0-2.8-1.3-2.8-2.8c0-1.6,1.3-2.8,2.8-2.8s2.8,1.3,2.8,2.8C25.3,54,24,55.2,22.4,55.2z
					 M22.4,51.1c-0.7,0-1.3,0.6-1.3,1.3c0,0.7,0.6,1.3,1.3,1.3s1.3-0.6,1.3-1.3C23.8,51.7,23.2,51.1,22.4,51.1z"/>
			</g>
			<g>
				<path class="st1" d="M52.4,25.4c-1.6,0-2.8-1.3-2.8-2.8s1.3-2.8,2.8-2.8s2.8,1.3,2.8,2.8S54,25.4,52.4,25.4z M52.4,21.3
					c-0.7,0-1.3,0.6-1.3,1.3s0.6,1.3,1.3,1.3s1.3-0.6,1.3-1.3S53.2,21.3,52.4,21.3z"/>
			</g>
			<g>
				<path class="st1" d="M37.6,53.9c-0.4,0-0.8-0.3-0.8-0.8V32.3c0-0.4,0.3-0.8,0.8-0.8s0.8,0.3,0.8,0.8v20.9
					C38.4,53.6,38,53.9,37.6,53.9z"/>
			</g>
			<g>
				<path class="st1" d="M30.2,52c-0.4,0-0.8-0.3-0.8-0.8V38.4c0-0.4,0.3-0.8,0.8-0.8s0.8,0.3,0.8,0.8v12.8
					C30.9,51.6,30.6,52,30.2,52z"/>
			</g>
			<g>
				<path class="st1" d="M45.5,51.6c-0.4,0-0.8-0.3-0.8-0.8V29.8c0-0.4,0.3-0.8,0.8-0.8s0.8,0.3,0.8,0.8v21.1
					C46.2,51.3,45.9,51.6,45.5,51.6z"/>
			</g>
			<g>
				<path class="st1" d="M32.6,40.7c-0.2,0-0.4-0.1-0.5-0.2l-1.9-1.9l-1.9,1.9c-0.3,0.3-0.8,0.3-1.1,0s-0.3-0.8,0-1.1l3-3l3,3
					c0.3,0.3,0.3,0.8,0,1.1C33,40.6,32.8,40.7,32.6,40.7z"/>
			</g>
			<g>
				<path class="st1" d="M40.1,35.5c-0.2,0-0.4-0.1-0.5-0.2l-1.9-1.9l-1.9,1.9c-0.3,0.3-0.8,0.3-1.1,0s-0.3-0.8,0-1.1l3-3l3,3
					c0.3,0.3,0.3,0.8,0,1.1C40.5,35.4,40.3,35.5,40.1,35.5z"/>
			</g>
			<g>
				<path class="st1" d="M48,32.1c-0.2,0-0.4-0.1-0.5-0.2L45.5,30l-1.9,1.9c-0.3,0.3-0.8,0.3-1.1,0s-0.3-0.8,0-1.1l3-3l3,3
					c0.3,0.3,0.3,0.8,0,1.1C48.3,32.1,48.2,32.1,48,32.1z"/>
			</g>
		</g>
	</g>
</g>
</svg>
