<?xml version="1.0" encoding="utf-8"?>
<!-- Generator: Adobe Illustrator 21.1.0, SVG Export Plug-In . SVG Version: 6.00 Build 0)  -->
<svg version="1.1" xmlns="http://www.w3.org/2000/svg" xmlns:xlink="http://www.w3.org/1999/xlink" x="0px" y="0px"
	 viewBox="0 0 73.5 75" style="enable-background:new 0 0 73.5 75;" xml:space="preserve">
<style type="text/css">
	.st0{fill:#FCF4F0;}
	.st1{fill:#CB6D35;}
	.st2{fill:none;stroke:#CB6D35;stroke-width:1.5;stroke-linecap:round;stroke-miterlimit:10;}
	.st3{fill:none;stroke:#CB6D35;stroke-linecap:round;stroke-miterlimit:10;}
</style>
<g id="Homepage">
</g>
<g id="Factoring">
	<g>
		<circle class="st0" cx="36.8" cy="37.5" r="33.8"/>
		<g>
			<g>
				<path class="st1" d="M31,45.8L29,45.6l-0.9-0.8l-0.1-2c0-0.3,0.1-0.6,0.3-0.8l5.9-6.8c-0.4-1.8,0.2-3.8,1.6-5.2
					c1.1-1.1,2.5-1.6,4-1.7c0,0,0,0,0,0c1.4,0,2.6,0.5,3.7,1.3c0.1,0.1,0.3,0.2,0.4,0.4c1.2,1.4,1.8,3.2,1.4,5
					c-0.2,1.1-0.7,2.1-1.5,2.9l0,0c-1.3,1.3-3.2,1.9-5,1.6l-3.2,2.2c-0.2,0.1-0.4,0.2-0.6,0.3l-0.2,0l0,0.1c0,0.4-0.3,0.8-0.8,0.9
					l-0.3,0.1l0,0.1c0,0.4-0.2,0.6-0.3,0.7l-1.5,1.5C31.6,45.6,31.3,45.8,31,45.8z M30.7,44.4C30.7,44.4,30.7,44.4,30.7,44.4
					L30.7,44.4z M29.6,44.2l1.3,0.1l1.3-1.3l0.1-1l1.1-0.3l0.1-0.9l1.2-0.2l3.8-2.6l0.3,0.1c1.3,0.3,2.9-0.1,3.9-1.1l0,0
					c0.6-0.6,0.9-1.3,1.1-2.1c0.2-1.3-0.2-2.7-1.1-3.7c-0.1-0.1-0.1-0.1-0.2-0.2c-0.7-0.6-1.7-1-2.6-1c0,0,0,0,0,0
					c-1.1,0-2.2,0.4-3,1.2c-1.1,1.1-1.5,2.7-1.1,4l0.1,0.4l-6.4,7.4L29.6,44.2L29.6,44.2z M32.1,43.1C32.1,43.1,32.1,43.2,32.1,43.1
					L32.1,43.1z M29.4,42.9L29.4,42.9C29.4,43,29.4,42.9,29.4,42.9z M32.2,42.9C32.2,42.9,32.2,42.9,32.2,42.9L32.2,42.9z
					 M33.5,41.5C33.5,41.5,33.5,41.5,33.5,41.5L33.5,41.5z M43.2,37.4L43.2,37.4L43.2,37.4z"/>
			</g>
			<g>
				<path class="st1" d="M25.4,49.1c-0.2,0-0.4-0.1-0.5-0.2c-0.3-0.3-0.3-0.8,0-1.1l3.3-3.3c0.3-0.3,0.8-0.3,1.1,0
					c0.3,0.3,0.3,0.8,0,1.1l-3.3,3.3C25.8,49,25.6,49.1,25.4,49.1z"/>
			</g>
			<g>
				<path class="st1" d="M43.4,31.2c-0.2,0-0.4-0.1-0.5-0.2c-0.3-0.3-0.3-0.8,0-1.1l3.7-3.6c0.3-0.3,0.8-0.3,1.1,0
					c0.3,0.3,0.3,0.8,0,1.1L43.9,31C43.8,31.1,43.6,31.2,43.4,31.2z"/>
			</g>
			<g>
				<path class="st1" d="M39.9,36.2c-1.4,0-2.5-1.1-2.5-2.5c0-1.4,1.1-2.5,2.5-2.5c1.4,0,2.5,1.1,2.5,2.5
					C42.4,35.1,41.3,36.2,39.9,36.2z M39.9,32.6c-0.6,0-1,0.5-1,1c0,0.6,0.5,1,1,1c0.6,0,1-0.5,1-1C40.9,33.1,40.5,32.6,39.9,32.6z"
					/>
			</g>
			<g>
				<path class="st2" d="M44.3,28.1"/>
			</g>
			<g>
				<path class="st2" d="M29.1,43.3"/>
			</g>
			<g>
				<path class="st3" d="M21.7,27.4"/>
			</g>
			<g>
				<path class="st1" d="M36.6,59.3c-3.2,0-6.4-0.7-9.3-2c-0.4-0.2-0.5-0.6-0.4-1c0.2-0.4,0.6-0.5,1-0.4c2.7,1.3,5.6,1.9,8.7,1.9
					c11.4,0,20.7-9.3,20.7-20.7c0-3-0.6-5.9-1.9-8.6c-0.2-0.4,0-0.8,0.4-1c0.4-0.2,0.8,0,1,0.4c1.3,2.9,2,6,2,9.2
					C58.8,49.4,48.9,59.3,36.6,59.3z"/>
			</g>
			<g>
				<path class="st1" d="M17.3,47.1c-0.3,0-0.5-0.2-0.7-0.4c-1.4-3-2.1-6.2-2.1-9.5c0-12.2,10-22.2,22.2-22.2c3.4,0,6.7,0.7,9.7,2.2
					c0.4,0.2,0.5,0.6,0.3,1s-0.6,0.5-1,0.3c-2.8-1.4-5.9-2.1-9-2.1C25.2,16.4,16,25.7,16,37.1c0,3.1,0.7,6.1,2,8.9
					c0.2,0.4,0,0.8-0.4,1C17.5,47.1,17.4,47.1,17.3,47.1z"/>
			</g>
			<g>
				<path class="st1" d="M21.5,54.9c-1.6,0-2.8-1.3-2.8-2.8c0-1.6,1.3-2.8,2.8-2.8s2.8,1.3,2.8,2.8C24.3,53.6,23,54.9,21.5,54.9z
					 M21.5,50.7c-0.7,0-1.3,0.6-1.3,1.3c0,0.7,0.6,1.3,1.3,1.3s1.3-0.6,1.3-1.3C22.8,51.3,22.2,50.7,21.5,50.7z"/>
			</g>
			<g>
				<path class="st1" d="M51.5,25c-1.6,0-2.8-1.3-2.8-2.8s1.3-2.8,2.8-2.8s2.8,1.3,2.8,2.8S53,25,51.5,25z M51.5,20.9
					c-0.7,0-1.3,0.6-1.3,1.3s0.6,1.3,1.3,1.3s1.3-0.6,1.3-1.3S52.2,20.9,51.5,20.9z"/>
			</g>
			<g>
				<path class="st1" d="M36.7,53.9c-9.1,0-16.4-7.4-16.4-16.4c0-9.1,7.4-16.4,16.4-16.4c9.1,0,16.4,7.4,16.4,16.4
					C53.2,46.6,45.8,53.9,36.7,53.9z M36.7,22.6c-8.2,0-14.9,6.7-14.9,14.9s6.7,14.9,14.9,14.9c8.2,0,14.9-6.7,14.9-14.9
					S45,22.6,36.7,22.6z"/>
			</g>
		</g>
	</g>
</g>
</svg>
