<?xml version="1.0" encoding="utf-8"?>
<!-- Generator: Adobe Illustrator 21.1.0, SVG Export Plug-In . SVG Version: 6.00 Build 0)  -->
<svg version="1.1" xmlns="http://www.w3.org/2000/svg" xmlns:xlink="http://www.w3.org/1999/xlink" x="0px" y="0px"
	 viewBox="0 0 73.5 75" style="enable-background:new 0 0 73.5 75;" xml:space="preserve">
<style type="text/css">
	.st0{fill:#FCF4F0;}
	.st1{fill:none;stroke:#CB6D35;stroke-linecap:round;stroke-miterlimit:10;}
	.st2{fill:#CB6D35;}
</style>
<g id="Homepage">
</g>
<g id="Factoring">
	<g>
		<circle class="st0" cx="36.8" cy="37.5" r="33.8"/>
		<g>
			<g>
				<path class="st1" d="M21.8,28.9"/>
			</g>
			<g>
				<path class="st2" d="M28.5,43.2c-0.3,0-0.5-0.1-0.8-0.2l-6.8-3.3c-0.2-0.1-0.4-0.4-0.2-0.7c0.1-0.3,0.4-0.4,0.7-0.2l6.8,3.3
					c0.5,0.3,0.8,0,0.8-0.2c0.1-0.1,0.2-0.5-0.1-0.6l-2.6-1.6c-0.1,0-0.8-0.3-0.7-0.9c0-0.2,0.1-0.5,0.7-0.7l0.1,0l9.2,0
					c0.4,0,0.5-0.3,0.5-0.6c0-0.3-0.2-0.4-0.5-0.4h-7.3c-0.2,0-0.5-0.1-0.6-0.3c-0.2-0.2-0.2-0.4-0.2-0.7c0.1-0.4,0.4-0.6,0.7-0.6
					c0.2-0.1,0.4-0.1,0.7,0l0.2,0H36c0.2,0,0.8,0,1-0.2c0,0,0.1-0.1,0.1-0.4c0-0.2,0-0.3-0.1-0.4c-0.2-0.2-0.6-0.2-0.9-0.2l-5.6,0
					c-0.4,0-0.7,0-1.1,0c-0.4,0-0.7,0-1.1,0c-0.2,0-0.4-0.1-0.5-0.2c-0.2-0.1-0.3-0.4-0.3-0.5c0-0.1,0-0.4,0.2-0.6
					c0.2-0.2,0.4-0.3,0.6-0.3h7c0.3,0,0.7,0,0.7-0.1c0,0,0.1-0.1,0.1-0.4c0-0.4,0-0.5-0.8-0.5h-7c-0.5,0-0.8-0.4-0.8-0.8
					s0.4-0.8,0.8-0.8h5c0.1,0,0.2,0,0.2,0l0,0c0.3-0.1,0.4-0.4,0.4-0.7c0-0.4-0.4-0.4-0.7-0.5h-8.4c-0.3,0-0.5-0.2-0.5-0.5
					s0.2-0.5,0.5-0.5h8.4c1.1,0,1.6,0.7,1.6,1.3c0.1,0.5-0.1,1.1-0.5,1.4h0.9c0.5,0,1.8,0,1.8,1.5c0,0.5-0.1,0.9-0.4,1.1
					c0,0,0,0,0,0c0.4,0,0.8,0.1,1.1,0.4c0.3,0.3,0.4,0.6,0.4,1.1c0,0.5-0.1,0.9-0.4,1.1c-0.3,0.3-0.7,0.4-1.1,0.4
					c0.3,0.3,0.5,0.7,0.5,1.1c0,0.8-0.6,1.6-1.5,1.6l-8.3,0l2.1,1.2c0.7,0.4,0.9,1.2,0.5,2C29.6,42.9,29.1,43.2,28.5,43.2z"/>
			</g>
			<g>
				<path class="st2" d="M47.4,50h-5.6c-1.1,0-1.5-0.7-1.6-1.3c-0.1-0.5,0.1-1,0.5-1.4h-0.8c-0.5,0-1.8,0-1.8-1.5
					c0-0.5,0.1-0.8,0.4-1.1c0,0,0,0,0,0c-0.3,0-0.7-0.1-1-0.4c-0.3-0.3-0.4-0.6-0.4-1.1c0-1.1,0.8-1.4,1.5-1.5
					c-0.3-0.3-0.5-0.7-0.5-1.1c0-0.8,0.6-1.5,1.5-1.5l7.8,0l-1.9-1.1c-0.6-0.4-0.8-1.2-0.5-1.9c0.3-0.6,1.1-1.1,2.1-0.6l5.6,2.5
					c0.3,0.1,0.4,0.4,0.3,0.7c-0.1,0.3-0.4,0.4-0.7,0.2l-5.6-2.5c-0.5-0.2-0.7,0-0.8,0.2c-0.1,0.1-0.1,0.4,0.1,0.6l2.5,1.5
					c0.2,0.1,0.8,0.3,0.7,0.9c0,0.2-0.2,0.5-0.7,0.6l-0.1,0l-8.7,0c-0.3,0-0.5,0.3-0.5,0.5c0,0.3,0.2,0.4,0.5,0.4h6.9
					c0.2,0,0.5,0.1,0.6,0.3c0.2,0.2,0.2,0.4,0.2,0.7l0,0.1c-0.1,0.3-0.4,0.5-0.7,0.5c-0.2,0.1-0.4,0-0.6,0l-0.2,0h-6.5
					c-1,0-1,0.2-1,0.5c0,0.2,0,0.3,0.1,0.3c0.2,0.2,0.6,0.2,0.9,0.2l5.3,0c0.4,0,0.7,0,1.1,0c0.3,0,0.7,0,1,0c0.2,0,0.4,0.1,0.5,0.2
					c0.2,0.1,0.3,0.3,0.3,0.5c0,0.2,0,0.4-0.2,0.6c-0.1,0.2-0.4,0.3-0.6,0.3h-6.6c-0.3,0-0.6,0-0.7,0.1c0,0-0.1,0.1-0.1,0.4
					c0,0.4,0,0.5,0.8,0.5h6.6c0.4,0,0.8,0.3,0.8,0.8S46.9,48,46.5,48h-4.7c-0.1,0-0.2,0-0.2,0c-0.2,0.1-0.4,0.4-0.3,0.6
					c0,0.3,0.4,0.4,0.6,0.4h5.6c0.3,0,0.5,0.2,0.5,0.5S47.7,50,47.4,50z"/>
			</g>
			<g>
				<path class="st2" d="M36.7,55.1c-9.1,0-16.4-7.4-16.4-16.4c0-9.1,7.4-16.4,16.4-16.4s16.4,7.4,16.4,16.4
					C53.2,47.7,45.8,55.1,36.7,55.1z M36.7,23.7c-8.2,0-14.9,6.7-14.9,14.9s6.7,14.9,14.9,14.9s14.9-6.7,14.9-14.9
					S45,23.7,36.7,23.7z"/>
			</g>
			<g>
				<path class="st2" d="M36.7,60.8c-3.2,0-6.4-0.7-9.3-2c-0.4-0.2-0.5-0.6-0.4-1c0.2-0.4,0.6-0.5,1-0.4c2.7,1.3,5.6,1.9,8.7,1.9
					c11.4,0,20.7-9.3,20.7-20.7c0-3-0.6-5.9-1.9-8.6c-0.2-0.4,0-0.8,0.4-1c0.4-0.2,0.8,0,1,0.4c1.3,2.9,2,6,2,9.2
					C58.9,50.9,49,60.8,36.7,60.8z"/>
			</g>
			<g>
				<path class="st2" d="M17.4,48.6c-0.3,0-0.5-0.2-0.7-0.4c-1.4-3-2.1-6.2-2.1-9.5c0-12.2,10-22.2,22.2-22.2c3.4,0,6.7,0.7,9.7,2.2
					c0.4,0.2,0.5,0.6,0.3,1c-0.2,0.4-0.6,0.5-1,0.3c-2.8-1.4-5.9-2.1-9-2.1c-11.4,0-20.7,9.3-20.7,20.7c0,3.1,0.7,6.1,2,8.9
					c0.2,0.4,0,0.8-0.4,1C17.6,48.6,17.5,48.6,17.4,48.6z"/>
			</g>
			<g>
				<path class="st2" d="M21.6,56.4c-1.6,0-2.8-1.3-2.8-2.8c0-1.6,1.3-2.8,2.8-2.8s2.8,1.3,2.8,2.8C24.4,55.1,23.1,56.4,21.6,56.4z
					 M21.6,52.2c-0.7,0-1.3,0.6-1.3,1.3c0,0.7,0.6,1.3,1.3,1.3s1.3-0.6,1.3-1.3C22.9,52.8,22.3,52.2,21.6,52.2z"/>
			</g>
			<g>
				<path class="st2" d="M51.6,26.6c-1.6,0-2.8-1.3-2.8-2.8s1.3-2.8,2.8-2.8s2.8,1.3,2.8,2.8S53.1,26.6,51.6,26.6z M51.6,22.4
					c-0.7,0-1.3,0.6-1.3,1.3s0.6,1.3,1.3,1.3s1.3-0.6,1.3-1.3S52.3,22.4,51.6,22.4z"/>
			</g>
			<g>
				<path class="st2" d="M36.7,37c-0.3,0-0.6-0.2-0.7-0.5c-0.1-0.4,0.1-0.8,0.5-1l6.4-2.3V25c0-0.4,0.3-0.8,0.8-0.8s0.8,0.3,0.8,0.8
					v9.3L37,37C36.9,37,36.8,37,36.7,37z"/>
			</g>
			<g>
				<path class="st2" d="M30.7,53.4c-0.4,0-0.8-0.3-0.8-0.8v-6.3l7.1-3c0.4-0.2,0.8,0,1,0.4c0.2,0.4,0,0.8-0.4,1l-6.2,2.6v5.3
					C31.5,53.1,31.1,53.4,30.7,53.4z"/>
			</g>
		</g>
	</g>
</g>
</svg>
