<?xml version="1.0" encoding="utf-8"?>
<!-- Generator: Adobe Illustrator 21.1.0, SVG Export Plug-In . SVG Version: 6.00 Build 0)  -->
<svg version="1.1" xmlns="http://www.w3.org/2000/svg" xmlns:xlink="http://www.w3.org/1999/xlink" x="0px" y="0px"
	 viewBox="0 0 73.5 75" style="enable-background:new 0 0 73.5 75;" xml:space="preserve">
<style type="text/css">
	.st0{fill:#FCF4F0;}
	.st1{fill:#CB6D35;}
</style>
<g id="Homepage">
</g>
<g id="Factoring">
	<g>
		<circle class="st0" cx="36.3" cy="37.7" r="33.8"/>
		<g>
			<g>
				<path class="st1" d="M36.3,54.7c-9.1,0-16.4-7.4-16.4-16.4c0-9.1,7.4-16.4,16.4-16.4s16.4,7.4,16.4,16.4
					C52.8,47.4,45.4,54.7,36.3,54.7z M36.3,23.4c-8.2,0-14.9,6.7-14.9,14.9s6.7,14.9,14.9,14.9s14.9-6.7,14.9-14.9
					S44.6,23.4,36.3,23.4z"/>
			</g>
			<g>
				<path class="st1" d="M36.3,54.7c-2.5,0-4.7-3-5.9-8.2c-0.6-2.5-0.9-5.4-0.9-8.3c0-2.3,0.2-4.5,0.5-6.5c0.1-0.6,0.2-1.2,0.4-1.8
					c1.2-5.1,3.4-8.2,5.9-8.2c2.5,0,4.7,3.1,5.9,8.2c0.6,2.5,0.9,5.4,0.9,8.3c0,2.9-0.3,5.8-0.9,8.3C41.1,51.7,38.9,54.7,36.3,54.7z
					 M36.3,23.4c-1.7,0-3.5,2.7-4.5,7c-0.1,0.5-0.2,1.1-0.3,1.7c-0.3,2-0.5,4.1-0.5,6.2c0,2.8,0.3,5.6,0.9,7.9c1,4.3,2.8,7,4.5,7
					s3.5-2.7,4.5-7c0.6-2.4,0.9-5.1,0.9-7.9c0-2.8-0.3-5.6-0.9-7.9C39.8,26.1,38.1,23.4,36.3,23.4z"/>
			</g>
			<g>
				<path class="st1" d="M36.3,47.6c-9.2,0-16.4-4.1-16.4-9.3c0-5.2,7.2-9.3,16.4-9.3s16.4,4.1,16.4,9.3
					C52.8,43.5,45.6,47.6,36.3,47.6z M36.3,30.5c-8.1,0-14.9,3.6-14.9,7.8c0,4.3,6.8,7.8,14.9,7.8s14.9-3.6,14.9-7.8
					C51.3,34,44.4,30.5,36.3,30.5z"/>
			</g>
			<g>
				<circle class="st1" cx="36.3" cy="38.3" r="3.3"/>
			</g>
			<g>
				<path class="st1" d="M36.3,60.5c-3.2,0-6.4-0.7-9.3-2c-0.4-0.2-0.5-0.6-0.4-1c0.2-0.4,0.6-0.5,1-0.4c2.7,1.3,5.6,1.9,8.7,1.9
					C47.8,59,57,49.7,57,38.3c0-3-0.6-5.9-1.9-8.6c-0.2-0.4,0-0.8,0.4-1c0.4-0.2,0.8,0,1,0.4c1.3,2.9,2,6,2,9.2
					C58.5,50.5,48.6,60.5,36.3,60.5z"/>
			</g>
			<g>
				<path class="st1" d="M17,48.3c-0.3,0-0.5-0.2-0.7-0.4c-1.4-3-2.1-6.2-2.1-9.5c0-12.2,10-22.2,22.2-22.2c3.4,0,6.7,0.8,9.7,2.2
					c0.4,0.2,0.5,0.6,0.3,1c-0.2,0.4-0.6,0.5-1,0.3c-2.8-1.4-5.9-2.1-9-2.1c-11.4,0-20.7,9.3-20.7,20.7c0,3.1,0.7,6.1,2,8.9
					c0.2,0.4,0,0.8-0.4,1C17.2,48.2,17.1,48.3,17,48.3z"/>
			</g>
			<g>
				<path class="st1" d="M21.2,56c-1.6,0-2.8-1.3-2.8-2.8s1.3-2.8,2.8-2.8s2.8,1.3,2.8,2.8S22.7,56,21.2,56z M21.2,51.9
					c-0.7,0-1.3,0.6-1.3,1.3s0.6,1.3,1.3,1.3s1.3-0.6,1.3-1.3S21.9,51.9,21.2,51.9z"/>
			</g>
			<g>
				<path class="st1" d="M51.2,26.2c-1.6,0-2.8-1.3-2.8-2.8c0-1.6,1.3-2.8,2.8-2.8s2.8,1.3,2.8,2.8C54,25,52.7,26.2,51.2,26.2z
					 M51.2,22.1c-0.7,0-1.3,0.6-1.3,1.3c0,0.7,0.6,1.3,1.3,1.3s1.3-0.6,1.3-1.3C52.5,22.7,51.9,22.1,51.2,22.1z"/>
			</g>
		</g>
	</g>
</g>
</svg>
