<?xml version="1.0" encoding="utf-8"?>
<!-- Generator: Adobe Illustrator 21.1.0, SVG Export Plug-In . SVG Version: 6.00 Build 0)  -->
<svg version="1.1" xmlns="http://www.w3.org/2000/svg" xmlns:xlink="http://www.w3.org/1999/xlink" x="0px" y="0px"
	 viewBox="0 0 73.5 75" style="enable-background:new 0 0 73.5 75;" xml:space="preserve">
<style type="text/css">
	.st0{fill:#FCF4F0;}
	.st1{fill:#CB6D35;}
</style>
<g id="Homepage">
</g>
<g id="Factoring">
	<g>
		<circle class="st0" cx="36.8" cy="37.5" r="33.8"/>
		<g>
			<g>
				<path class="st1" d="M36.8,53.9L36.8,53.9c-0.7,0-1.4,0-2.1-0.1c-0.4,0-0.7-0.4-0.7-0.8s0.4-0.7,0.8-0.7
					c0.6,0.1,1.2,0.1,1.8,0.1c0.4,0,0.8,0.3,0.8,0.8S37.2,53.9,36.8,53.9z M39.7,53.6c-0.4,0-0.7-0.2-0.7-0.6
					c-0.1-0.4,0.2-0.8,0.6-0.9c0.6-0.1,1.2-0.3,1.8-0.5c0.4-0.1,0.8,0.1,0.9,0.5s-0.1,0.8-0.5,0.9c-0.7,0.2-1.3,0.4-2,0.5
					C39.8,53.6,39.8,53.6,39.7,53.6z M32,53.2c-0.1,0-0.2,0-0.2,0c-0.7-0.2-1.3-0.5-1.9-0.8c-0.4-0.2-0.5-0.6-0.4-1
					c0.2-0.4,0.6-0.5,1-0.4c0.6,0.3,1.2,0.5,1.7,0.7c0.4,0.1,0.6,0.5,0.5,0.9C32.6,53,32.3,53.2,32,53.2z M44.3,52
					c-0.3,0-0.5-0.1-0.7-0.4c-0.2-0.4-0.1-0.8,0.3-1c0.5-0.3,1.1-0.6,1.6-1c0.3-0.2,0.8-0.2,1,0.2c0.2,0.3,0.2,0.8-0.2,1
					c-0.6,0.4-1.1,0.8-1.7,1.1C44.6,51.9,44.5,52,44.3,52z M27.6,51c-0.2,0-0.3,0-0.4-0.1c-0.6-0.4-1.1-0.8-1.6-1.3
					c-0.3-0.3-0.3-0.8,0-1.1c0.3-0.3,0.8-0.3,1.1,0c0.5,0.4,0.9,0.8,1.4,1.2c0.3,0.2,0.4,0.7,0.2,1C28,50.9,27.8,51,27.6,51z
					 M48.2,49c-0.2,0-0.4-0.1-0.5-0.2c-0.3-0.3-0.3-0.8,0-1.1c0.4-0.5,0.8-0.9,1.2-1.4c0.2-0.3,0.7-0.4,1-0.2c0.3,0.2,0.4,0.7,0.2,1
					c-0.4,0.6-0.8,1.1-1.3,1.6C48.6,48.9,48.4,49,48.2,49z M24.1,47.5c-0.2,0-0.5-0.1-0.6-0.3c-0.4-0.6-0.8-1.1-1.1-1.7
					c-0.2-0.4-0.1-0.8,0.3-1c0.4-0.2,0.8-0.1,1,0.3c0.3,0.5,0.6,1.1,1,1.6c0.2,0.3,0.2,0.8-0.2,1C24.4,47.5,24.2,47.5,24.1,47.5z
					 M51,44.9c-0.1,0-0.2,0-0.3-0.1c-0.4-0.2-0.5-0.6-0.4-1c0.3-0.6,0.5-1.1,0.7-1.7c0.1-0.4,0.5-0.6,0.9-0.5
					c0.4,0.1,0.6,0.5,0.5,0.9c-0.2,0.7-0.5,1.3-0.8,1.9C51.5,44.7,51.2,44.9,51,44.9z M21.8,43.2c-0.3,0-0.6-0.2-0.7-0.5
					c-0.2-0.6-0.4-1.3-0.5-2c-0.1-0.4,0.2-0.8,0.6-0.9c0.4-0.1,0.8,0.2,0.9,0.6c0.1,0.6,0.3,1.2,0.5,1.8c0.1,0.4-0.1,0.8-0.5,0.9
					C22,43.1,21.9,43.2,21.8,43.2z M52.3,40.2C52.3,40.2,52.3,40.2,52.3,40.2c-0.5-0.1-0.8-0.4-0.7-0.8c0.1-0.6,0.1-1.2,0.1-1.8
					c0-0.4,0.3-0.8,0.8-0.8c0.4,0,0.7,0.3,0.7,0.7h-0.8l0.8,0c0,0.7,0,1.4-0.1,2.1C53,39.9,52.7,40.2,52.3,40.2z M21.1,38.3
					c-0.4,0-0.8-0.3-0.8-0.7v-0.1c0-0.7,0-1.4,0.1-2.1c0.1-0.4,0.4-0.7,0.8-0.7c0.4,0.1,0.7,0.4,0.7,0.8c-0.1,0.6-0.1,1.2-0.1,1.9
					C21.8,37.9,21.5,38.3,21.1,38.3z M52.2,35.3c-0.4,0-0.7-0.2-0.7-0.6c-0.1-0.6-0.3-1.2-0.5-1.8c-0.1-0.4,0.1-0.8,0.5-0.9
					c0.4-0.1,0.8,0.1,0.9,0.5c0.2,0.7,0.4,1.3,0.5,2c0.1,0.4-0.2,0.8-0.6,0.9C52.2,35.3,52.2,35.3,52.2,35.3z M21.8,33.4
					c-0.1,0-0.2,0-0.2,0c-0.4-0.1-0.6-0.6-0.5-0.9c0.2-0.7,0.5-1.3,0.8-1.9c0.2-0.4,0.6-0.5,1-0.4c0.4,0.2,0.5,0.6,0.4,1
					c-0.3,0.6-0.5,1.1-0.7,1.7C22.4,33.2,22.1,33.4,21.8,33.4z M50.5,30.7c-0.3,0-0.5-0.1-0.7-0.4c-0.3-0.5-0.6-1.1-1-1.6
					c-0.2-0.3-0.2-0.8,0.2-1c0.3-0.2,0.8-0.2,1,0.2c0.4,0.6,0.8,1.1,1.1,1.7c0.2,0.4,0.1,0.8-0.3,1C50.7,30.6,50.6,30.7,50.5,30.7z
					 M24.1,29c-0.2,0-0.3,0-0.4-0.1c-0.3-0.2-0.4-0.7-0.2-1c0.4-0.6,0.8-1.1,1.3-1.6c0.3-0.3,0.8-0.3,1.1,0c0.3,0.3,0.3,0.8,0,1.1
					c-0.4,0.5-0.8,0.9-1.2,1.4C24.5,28.9,24.3,29,24.1,29z M47.5,26.8c-0.2,0-0.4-0.1-0.5-0.2c-0.5-0.4-0.9-0.8-1.4-1.2
					c-0.3-0.2-0.4-0.7-0.2-1c0.2-0.3,0.7-0.4,1-0.2c0.6,0.4,1.1,0.8,1.6,1.3c0.3,0.3,0.3,0.8,0,1.1C47.9,26.7,47.7,26.8,47.5,26.8z
					 M27.5,25.6c-0.2,0-0.5-0.1-0.6-0.3c-0.2-0.3-0.2-0.8,0.2-1c0.6-0.4,1.1-0.8,1.7-1.1c0.4-0.2,0.8-0.1,1,0.3s0.1,0.8-0.3,1
					c-0.5,0.3-1.1,0.6-1.6,1C27.8,25.5,27.7,25.6,27.5,25.6z M43.4,24c-0.1,0-0.2,0-0.3-0.1c-0.6-0.3-1.2-0.5-1.7-0.7
					c-0.4-0.1-0.6-0.6-0.5-0.9c0.1-0.4,0.6-0.6,0.9-0.5c0.7,0.2,1.3,0.5,1.9,0.8c0.4,0.2,0.5,0.6,0.4,1C44,23.9,43.7,24,43.4,24z
					 M31.9,23.3c-0.3,0-0.6-0.2-0.7-0.5c-0.1-0.4,0.1-0.8,0.5-0.9c0.6-0.2,1.3-0.4,2-0.5c0.4-0.1,0.8,0.2,0.9,0.6
					c0.1,0.4-0.2,0.8-0.6,0.9c-0.6,0.1-1.2,0.3-1.8,0.5C32,23.3,32,23.3,31.9,23.3z M38.7,22.7C38.7,22.7,38.6,22.7,38.7,22.7
					c-0.7-0.1-1.3-0.1-2-0.1c-0.4,0-0.8-0.3-0.8-0.8s0.3-0.8,0.7-0.8h0c0.7,0,1.4,0,2,0.1c0.4,0.1,0.7,0.4,0.7,0.8
					C39.4,22.4,39.1,22.7,38.7,22.7z"/>
			</g>
			<g>
				<path class="st1" d="M36.8,59.7c-3.2,0-6.4-0.7-9.3-2c-0.4-0.2-0.5-0.6-0.4-1c0.2-0.4,0.6-0.5,1-0.4c2.7,1.3,5.6,1.9,8.7,1.9
					c11.4,0,20.7-9.3,20.7-20.7c0-3-0.6-5.9-1.9-8.6c-0.2-0.4,0-0.8,0.4-1c0.4-0.2,0.8,0,1,0.4c1.3,2.9,2,6,2,9.2
					C58.9,49.7,49,59.7,36.8,59.7z"/>
			</g>
			<g>
				<path class="st1" d="M17.4,47.5c-0.3,0-0.5-0.2-0.7-0.4c-1.4-3-2.1-6.2-2.1-9.5c0-12.2,10-22.2,22.2-22.2c3.4,0,6.7,0.7,9.7,2.2
					c0.4,0.2,0.5,0.6,0.3,1c-0.2,0.4-0.6,0.5-1,0.3c-2.8-1.4-5.9-2.1-9-2.1c-11.4,0-20.7,9.3-20.7,20.7c0,3.1,0.7,6.1,2,8.9
					c0.2,0.4,0,0.8-0.4,1C17.6,47.4,17.5,47.5,17.4,47.5z"/>
			</g>
			<g>
				<path class="st1" d="M21.6,55.2c-1.6,0-2.8-1.3-2.8-2.8c0-1.6,1.3-2.8,2.8-2.8s2.8,1.3,2.8,2.8C24.4,54,23.1,55.2,21.6,55.2z
					 M21.6,51.1c-0.7,0-1.3,0.6-1.3,1.3c0,0.7,0.6,1.3,1.3,1.3s1.3-0.6,1.3-1.3C22.9,51.7,22.3,51.1,21.6,51.1z"/>
			</g>
			<g>
				<path class="st1" d="M51.6,25.4c-1.6,0-2.8-1.3-2.8-2.8s1.3-2.8,2.8-2.8s2.8,1.3,2.8,2.8S53.1,25.4,51.6,25.4z M51.6,21.3
					c-0.7,0-1.3,0.6-1.3,1.3s0.6,1.3,1.3,1.3s1.3-0.6,1.3-1.3S52.3,21.3,51.6,21.3z"/>
			</g>
			<g>
				<g>
					<path class="st1" d="M40.7,43.3c-0.8,0.7-1.8,1.2-3,1.3v1.6c0,0.2-0.1,0.4-0.2,0.5c-0.1,0.1-0.3,0.2-0.5,0.2s-0.4-0.1-0.5-0.2
						c-0.1-0.1-0.2-0.3-0.2-0.5v-1.5c-0.8-0.1-1.6-0.2-2.4-0.5c-0.8-0.3-1.4-0.7-2-1.2c-0.2-0.2-0.3-0.4-0.3-0.7
						c0-0.2,0.1-0.4,0.2-0.5c0.1-0.1,0.2-0.2,0.4-0.2c0.2,0,0.4,0.1,0.6,0.2c1.3,0.9,2.7,1.4,4.1,1.4c1.1,0,1.9-0.2,2.5-0.7
						s0.9-1.1,0.9-1.9c0-0.5-0.2-0.9-0.5-1.2c-0.3-0.3-0.7-0.5-1.2-0.7c-0.5-0.2-1.1-0.3-1.9-0.5c-1-0.3-1.9-0.5-2.5-0.8
						c-0.6-0.3-1.2-0.6-1.6-1.2c-0.4-0.5-0.7-1.2-0.7-2.1c0-0.7,0.2-1.4,0.5-2c0.4-0.6,0.9-1.1,1.5-1.4c0.7-0.4,1.4-0.6,2.3-0.7
						v-1.6c0-0.2,0.1-0.4,0.2-0.5c0.1-0.1,0.3-0.2,0.5-0.2c0.2,0,0.4,0.1,0.5,0.2c0.1,0.1,0.2,0.3,0.2,0.5v1.6
						c0.7,0.1,1.4,0.2,2.1,0.5c0.7,0.3,1.2,0.6,1.7,1.1c0.2,0.2,0.3,0.4,0.3,0.7c0,0.2-0.1,0.4-0.2,0.5c-0.1,0.1-0.2,0.2-0.4,0.2
						c-0.2,0-0.4-0.1-0.6-0.2c-0.6-0.5-1.2-0.8-1.7-1.1c-0.6-0.2-1.2-0.3-2-0.3c-1,0-1.8,0.2-2.4,0.7c-0.6,0.5-0.9,1.1-0.9,1.9
						c0,0.6,0.2,1,0.5,1.4c0.3,0.3,0.7,0.6,1.2,0.8c0.5,0.2,1.2,0.4,2,0.6c1,0.2,1.8,0.5,2.4,0.7c0.6,0.2,1.1,0.6,1.5,1.1
						s0.6,1.1,0.6,2C41.9,41.7,41.5,42.6,40.7,43.3z"/>
				</g>
			</g>
		</g>
	</g>
</g>
</svg>
