<?xml version="1.0" encoding="utf-8"?>
<!-- Generator: Adobe Illustrator 21.1.0, SVG Export Plug-In . SVG Version: 6.00 Build 0)  -->
<svg version="1.1" id="Layer_1" xmlns="http://www.w3.org/2000/svg" xmlns:xlink="http://www.w3.org/1999/xlink" x="0px" y="0px"
	 viewBox="0 0 46.1 47.3" style="enable-background:new 0 0 46.1 47.3;" xml:space="preserve">
<style type="text/css">
	.st0{fill:#86C7A4;}
</style>
<g>
	<path class="st0" d="M23,33.2c-6,0-10.8-3.6-10.8-8.1S17.1,17,23,17s10.8,3.6,10.8,8.1S29,33.2,23,33.2z M23,18
		c-5.4,0-9.8,3.2-9.8,7.1s4.4,7.1,9.8,7.1s9.8-3.2,9.8-7.1S28.4,18,23,18z"/>
</g>
<g>
	<path class="st0" d="M12.3,25.8c-1.4-0.4-2.1-1.7-2.1-3.6c0-2.2,1.8-4,4-4c0.8,0,1.5,0.2,2.2,0.6l-0.5,0.8
		c-0.5-0.3-1.1-0.5-1.6-0.5c-1.7,0-3,1.4-3,3c0,0.8,0.2,2.2,1.4,2.6L12.3,25.8z"/>
</g>
<g>
	<path class="st0" d="M33.7,25.7l-0.3-1c1.2-0.4,1.4-1.8,1.4-2.6c0-1.7-1.4-3-3-3c-0.6,0-1.2,0.2-1.6,0.5l-0.5-0.8
		c0.7-0.4,1.4-0.6,2.2-0.6c2.2,0,4,1.8,4,4C35.9,24,35.1,25.3,33.7,25.7z"/>
</g>
<g>
	<path class="st0" d="M19.2,25.6c-1.1,0-2-0.9-2-2s0.9-2,2-2s2,0.9,2,2S20.4,25.6,19.2,25.6z M19.2,22.5c-0.6,0-1,0.5-1,1s0.5,1,1,1
		s1-0.5,1-1S19.8,22.5,19.2,22.5z"/>
</g>
<g>
	<path class="st0" d="M26.6,25.6c-1.1,0-2-0.9-2-2s0.9-2,2-2s2,0.9,2,2S27.8,25.6,26.6,25.6z M26.6,22.5c-0.6,0-1,0.5-1,1s0.5,1,1,1
		s1-0.5,1-1S27.2,22.5,26.6,22.5z"/>
</g>
<g>
	<path class="st0" d="M23.1,29.6c-2.6,0-4.7-1.7-4.7-1.7l0.6-0.8c0.2,0.1,4.1,3.2,7.7,0l0.7,0.8C26,29.2,24.5,29.6,23.1,29.6z"/>
</g>
<g>
	<polygon class="st0" points="23.3,17.7 22.4,17.4 24.5,11.8 28.7,13 28.5,14 25.1,13 	"/>
</g>
<g>
	<path class="st0" d="M30.9,17c-1.6,0-2.8-1.3-2.8-2.8c0-1.6,1.3-2.8,2.8-2.8s2.8,1.3,2.8,2.8C33.7,15.7,32.4,17,30.9,17z
		 M30.9,12.3c-1,0-1.8,0.8-1.8,1.8s0.8,1.8,1.8,1.8s1.8-0.8,1.8-1.8S31.9,12.3,30.9,12.3z"/>
</g>
<g>
	<path class="st0" d="M23.2,42.6c-10.4,0-18.9-8.5-18.9-18.9S12.8,4.7,23.2,4.7s18.9,8.5,18.9,18.9S33.7,42.6,23.2,42.6z M23.2,5.7
		c-9.9,0-17.9,8-17.9,17.9s8,17.9,17.9,17.9s17.9-8,17.9-17.9S33.1,5.7,23.2,5.7z"/>
</g>
</svg>
