<?xml version="1.0" encoding="utf-8"?>
<!-- Generator: Adobe Illustrator 21.1.0, SVG Export Plug-In . SVG Version: 6.00 Build 0)  -->
<svg version="1.1" id="Layer_1" xmlns="http://www.w3.org/2000/svg" xmlns:xlink="http://www.w3.org/1999/xlink" x="0px" y="0px"
	 viewBox="0 0 46.1 47.3" style="enable-background:new 0 0 46.1 47.3;" xml:space="preserve">
<style type="text/css">
	.st0{fill:#86C7A4;}
</style>
<g>
	<g>
		<path class="st0" d="M20.1,32.9c-2.3,0-4.5-0.6-6.4-1.9c-0.3-0.2-0.5-0.7-0.4-1.1c0.2-0.4,0.6-0.7,1-0.6c1.1,0.1,2.2,0,3.3-0.4
			c-1-0.6-1.8-1.5-2.2-2.7c-0.1-0.2,0-0.5,0.1-0.7c-0.9-0.9-1.5-2.2-1.5-3.5c0-0.3,0.2-0.6,0.4-0.8c0,0,0,0,0,0
			c-0.6-1.4-0.5-3,0.2-4.3c0.2-0.3,0.4-0.4,0.7-0.5c0.3,0,0.6,0.1,0.8,0.3c1.6,1.9,3.8,3.2,6.2,3.6c0-1,0.4-2,1-2.8
			c0.9-1.1,2.3-1.8,3.7-1.8c1.1,0,2.2,0.4,3.1,1.1c0.6-0.2,1.2-0.4,1.7-0.7c0.4-0.2,0.7-0.2,1,0.1c0.3,0.2,0.4,0.6,0.3,1
			c0,0.1-0.1,0.2-0.1,0.4c0.2,0,0.3,0.1,0.5,0.3c0.3,0.3,0.3,0.8,0.1,1.1l0,0c-0.5,0.7-1.1,1.4-1.8,1.9c0,3.1-1.2,6.2-3.4,8.4
			C27.1,31,24.4,32.9,20.1,32.9z M14.6,30.4c1.7,1,3.6,1.5,5.6,1.5c3.9,0,6.4-1.8,7.8-3.2c2-2.1,3.2-5.1,3.1-7.9l0-0.3l0.2-0.2
			c0.6-0.5,1.1-1,1.6-1.6c-0.1,0-0.2,0.1-0.4,0.1l-1.5,0.5l1-1.3c0.2-0.3,0.4-0.6,0.5-1c-0.6,0.4-1.3,0.7-2.1,0.8L30,18l-0.2-0.2
			c-0.7-0.7-1.6-1-2.6-1c-1.2,0-2.2,0.5-2.9,1.4c-0.6,0.8-0.9,1.7-0.8,2.7l0.1,0.6l-0.6-0.1c-2.9-0.3-5.5-1.7-7.4-3.9
			c-0.7,1.3-0.6,2.8,0.2,4l1.1,1.6l-1.8-0.9c0,0-0.1,0-0.1,0c0,1.1,0.6,2.2,1.6,3l1.1,0.8l-1.2,0.1c0.4,1.2,1.3,2,2.5,2.4l1.1,0.3
			l-1,0.6C17.7,30.1,16.1,30.5,14.6,30.4z M33.1,18.6C33.1,18.6,33.1,18.6,33.1,18.6C33.1,18.6,33.1,18.6,33.1,18.6z"/>
	</g>
</g>
<g>
	<path class="st0" d="M23.6,43.3c-10.4,0-18.9-8.5-18.9-18.9S13.2,5.4,23.6,5.4s18.9,8.5,18.9,18.9S34.1,43.3,23.6,43.3z M23.6,6.4
		c-9.9,0-17.9,8-17.9,17.9s8,17.9,17.9,17.9s17.9-8,17.9-17.9S33.5,6.4,23.6,6.4z"/>
</g>
</svg>
