<?xml version="1.0" encoding="utf-8"?>
<!-- Generator: Adobe Illustrator 21.1.0, SVG Export Plug-In . SVG Version: 6.00 Build 0)  -->
<svg width='378' height='351' version="1.1" xmlns="http://www.w3.org/2000/svg" xmlns:xlink="http://www.w3.org/1999/xlink" x="0px" y="0px"
	 viewBox="0 0 378.3 351.7" style="enable-background:new 0 0 378.3 351.7;" xml:space="preserve">
<style type="text/css">
	.st0{fill:#579271;}
</style>
<g id="Layer_1">
</g>
<g id="Homepage">
	<g>
		<g>
			<g>
				<g>
					<path class="st0" d="M124.1,186.8l-28.9-28.9c-1.9-1.9-2-5.1,0-7.1l27.5-27.9c1.9-1.9,5.1-2,7-0.1l13.7,13.2
						c3,2.8,6.8,4.5,10.9,4.7l18.2,0.7l-0.1,2l-18.2-0.7c-4.6-0.2-8.9-2-12.2-5.2l-13.7-13.2c-1.2-1.1-3.1-1.1-4.2,0.1l-27.5,27.9
						c-1.2,1.2-1.1,3.1,0,4.2l28.9,28.9L124.1,186.8z"/>
				</g>
			</g>
			<g>
				<g>
					<path class="st0" d="M226.7,189.3L192,154.2c-1.5-1.6-4-1.6-5.6-0.1l-14.5,13.7c-6.5,6.2-16.6,6-22.9-0.3
						c-0.5-0.5-0.8-1.2-0.8-2s0.3-1.5,0.9-2l25.3-24.3c4.6-4.4,11.4-5.8,17.3-3.6l8.5,3.2c3.2,1.2,6.8,0.4,9.2-1.9l14.1-13.6
						c2.2-2.1,5.8-2.1,8,0.1l26.8,27.2c1.1,1.1,1.6,2.5,1.6,4s-0.6,2.9-1.7,4L226.7,189.3z M189.1,151c1.6,0,3.1,0.6,4.3,1.8
						l33.3,33.7l29.8-29.2c0.7-0.7,1.1-1.6,1.1-2.6s-0.4-1.9-1.1-2.6l-26.8-27.2c-1.4-1.4-3.7-1.5-5.1-0.1v0l-14.1,13.6
						c-3,2.9-7.4,3.8-11.3,2.4l-8.5-3.2c-5.2-2-11.2-0.7-15.2,3.1L150.3,165c-0.2,0.1-0.2,0.3-0.2,0.6c0,0.2,0.1,0.4,0.2,0.6
						c5.6,5.6,14.4,5.7,20.2,0.3l14.5-13.7C186.1,151.5,187.6,151,189.1,151z"/>
				</g>
			</g>
			<g>
				<g>
					<path class="st0" d="M120.7,214.1c-2.5,0-5.1-1-7-2.9l-0.6-0.6c-3.9-3.9-3.9-10.2,0-14l17.8-17.8c3.9-3.9,10.2-3.9,14,0
						l0.6,0.6c3.9,3.9,3.9,10.2,0,14l-17.8,17.8C125.8,213.1,123.2,214.1,120.7,214.1z M137.9,177.9c-2,0-4.1,0.8-5.6,2.3L114.5,198
						c-3.1,3.1-3.1,8.1,0,11.2l0.6,0.6c3.1,3.1,8.1,3.1,11.2,0l17.8-17.8c3.1-3.1,3.1-8.1,0-11.2l-0.6-0.6
						C142,178.7,139.9,177.9,137.9,177.9z"/>
				</g>
			</g>
			<g>
				<g>
					<path class="st0" d="M134.4,226.9c-2.5,0-5.1-1-7-2.9l-0.6-0.6c-1.9-1.9-2.9-4.4-2.9-7c0-2.7,1-5.1,2.9-7l17.8-17.8
						c1.9-1.9,4.4-2.9,7-2.9c2.7,0,5.1,1,7,2.9l0.6,0.6c3.9,3.9,3.9,10.2,0,14L141.4,224C139.5,226,137,226.9,134.4,226.9z
						 M151.6,190.7c-2.1,0-4.1,0.8-5.6,2.3l-17.8,17.8c-1.5,1.5-2.3,3.5-2.3,5.6c0,2.1,0.8,4.1,2.3,5.6l0.6,0.6
						c3.1,3.1,8.1,3.1,11.2,0l17.8-17.8c3.1-3.1,3.1-8.1,0-11.2l-0.6-0.6C155.8,191.6,153.8,190.7,151.6,190.7z"/>
				</g>
			</g>
			<g>
				<g>
					<path class="st0" d="M147.6,240.1c-2.7,0-5.1-1-7-2.9l-0.6-0.6c-1.9-1.9-2.9-4.4-2.9-7c0-2.7,1-5.1,2.9-7l17.8-17.8
						c1.9-1.9,4.4-2.9,7-2.9c2.7,0,5.1,1,7,2.9l0.6,0.6c3.9,3.9,3.9,10.2,0,14l-17.8,17.8C152.8,239.1,150.3,240.1,147.6,240.1z
						 M164.8,203.9c-2.1,0-4.1,0.8-5.6,2.3L141.4,224c-1.5,1.5-2.3,3.5-2.3,5.6c0,2.1,0.8,4.1,2.3,5.6l0.6,0.6
						c1.5,1.5,3.5,2.3,5.6,2.3c2.1,0,4.1-0.8,5.6-2.3L171,218c3.1-3.1,3.1-8.1,0-11.2l-0.6-0.6C168.9,204.8,167,203.9,164.8,203.9z"
						/>
				</g>
			</g>
			<g>
				<g>
					<path class="st0" d="M161.4,252.5c-2.7,0-5.1-1-7-2.9l-0.6-0.6c-3.9-3.9-3.9-10.2,0-14l17.8-17.8c3.9-3.9,10.2-3.9,14,0
						l0.6,0.6c1.9,1.9,2.9,4.4,2.9,7c0,2.7-1,5.1-2.9,7l-17.8,17.8C166.6,251.5,164.1,252.5,161.4,252.5z M178.7,216.3
						c-2,0-4.1,0.8-5.6,2.3l-17.8,17.8c-3.1,3.1-3.1,8.1,0,11.2l0.6,0.6c1.5,1.5,3.5,2.3,5.6,2.3c2.1,0,4.1-0.8,5.6-2.3l17.8-17.8
						c1.5-1.5,2.3-3.5,2.3-5.6c0-2.1-0.8-4.1-2.3-5.6l-0.6-0.6C182.7,217.1,180.7,216.3,178.7,216.3z"/>
				</g>
			</g>
			<g>
				<g>
					<path class="st0" d="M231,193"/>
				</g>
			</g>
			<g>
				<g>
					<path class="st0" d="M224.9,208.6c-2.5,0-5-0.9-6.9-2.8l-3.9-3.8l1.4-1.4l3.9,3.8c3.2,3,8.2,2.9,11.3-0.2
						c3-3.2,2.9-8.2-0.2-11.3l-4.4-4.3l1.4-1.4l4.4,4.3c4,3.8,4.1,10.1,0.3,14.1C230.2,207.6,227.5,208.6,224.9,208.6z"/>
				</g>
			</g>
			<g>
				<g>
					<path class="st0" d="M212.3,221.4c-2.5,0-5-0.9-6.9-2.8l-3.9-3.8l1.4-1.4l3.9,3.8c3.2,3,8.2,2.9,11.3-0.2
						c3-3.2,2.9-8.2-0.2-11.3l1.4-1.4c4,3.8,4.1,10.1,0.3,14.1C217.5,220.4,214.9,221.4,212.3,221.4z"/>
				</g>
			</g>
			<g>
				<g>
					<path class="st0" d="M199.6,234.1c-2.6,0-5-1-6.9-2.8l-3.9-3.8l1.4-1.4l3.9,3.8c1.5,1.5,3.6,2.3,5.7,2.2c2.1,0,4.1-0.9,5.6-2.4
						c3-3.2,2.9-8.2-0.2-11.3l1.4-1.4c4,3.8,4.1,10.1,0.3,14.1c-1.8,1.9-4.3,3-7,3.1C199.8,234.1,199.7,234.1,199.6,234.1z"/>
				</g>
			</g>
			<g>
				<g>
					<path class="st0" d="M187,246.9c-2.5,0-5-0.9-6.9-2.8l-3.9-3.8l1.4-1.4l3.9,3.8c3.2,3,8.2,3,11.3-0.2c3-3.2,2.9-8.2-0.2-11.3
						l1.4-1.4c4,3.8,4.1,10.1,0.3,14.1C192.2,245.9,189.6,246.9,187,246.9z"/>
				</g>
			</g>
		</g>
		<g>
			<g>
				<path class="st0" d="M30.2,224.6l-1,0.3l-1,0.3c0-0.1-0.1-0.2-0.1-0.3c-4.9-15.4-7.4-31.4-7.4-47.7c0-14.9,2.1-29.6,6.2-43.7
					c0.1-0.2,0.1-0.4,0.2-0.6l1.9,0.6c-0.1,0.5-0.3,0.9-0.4,1.4c-3.9,13.7-5.9,28-5.9,42.4C22.8,193.4,25.3,209.3,30.2,224.6z"/>
			</g>
		</g>
		<g>
			<g>
				<path class="st0" d="M332,177.2"/>
			</g>
		</g>
		<g>
			<g>
				<path class="st0" d="M46.7,120.4c-0.8,0.7-1.8,1.2-3,1.4v1.3c0,0.3-0.1,0.6-0.3,0.8c-0.2,0.2-0.4,0.3-0.8,0.3
					c-0.3,0-0.6-0.1-0.8-0.3c-0.2-0.2-0.3-0.5-0.3-0.8v-1.2c-0.8-0.1-1.5-0.2-2.3-0.5c-0.7-0.3-1.4-0.6-1.9-1
					c-0.2-0.1-0.3-0.3-0.4-0.4c-0.1-0.1-0.1-0.3-0.1-0.6c0-0.3,0.1-0.5,0.3-0.8c0.2-0.2,0.4-0.3,0.6-0.3c0.1,0,0.3,0,0.4,0.1
					c0.1,0,0.3,0.1,0.5,0.2c0.6,0.4,1.2,0.7,1.8,0.9s1.2,0.3,1.9,0.3c0.9,0,1.6-0.2,2.1-0.5c0.5-0.4,0.7-0.9,0.7-1.5
					c0-0.4-0.1-0.7-0.4-1s-0.6-0.4-1-0.6c-0.4-0.1-1-0.3-1.7-0.5c-1-0.3-1.8-0.5-2.5-0.8c-0.6-0.3-1.2-0.7-1.7-1.2
					c-0.5-0.5-0.7-1.3-0.7-2.2c0-1.1,0.4-2,1.2-2.8c0.8-0.8,1.8-1.3,3.1-1.4V106c0-0.3,0.1-0.6,0.3-0.8c0.2-0.2,0.4-0.3,0.8-0.3
					c0.3,0,0.6,0.1,0.8,0.3c0.2,0.2,0.3,0.5,0.3,0.8v1.3c1.4,0.2,2.6,0.7,3.5,1.5c0.3,0.2,0.5,0.6,0.5,1c0,0.3-0.1,0.5-0.3,0.8
					c-0.2,0.2-0.4,0.3-0.6,0.3c-0.1,0-0.2,0-0.4-0.1c-0.1,0-0.3-0.1-0.5-0.2c-0.6-0.4-1.1-0.7-1.6-0.9c-0.5-0.2-1.1-0.3-1.8-0.3
					c-0.8,0-1.5,0.2-2,0.6c-0.5,0.4-0.8,0.9-0.8,1.5c0,0.4,0.1,0.8,0.4,1.1c0.3,0.3,0.6,0.5,1.1,0.6c0.4,0.2,1,0.3,1.8,0.5
					c1,0.2,1.8,0.5,2.4,0.8c0.6,0.3,1.2,0.7,1.6,1.2s0.7,1.2,0.7,2.1C47.8,118.8,47.5,119.7,46.7,120.4z"/>
			</g>
		</g>
		<g>
			<g>
				<g>
					<path class="st0" d="M28.2,224.9c0,0.1,0.1,0.2,0.1,0.3l1-0.3H28.2z"/>
				</g>
			</g>
			<g>
				<g>
					<rect x="34.7" y="254.1" class="st0" width="1.8" height="11.8"/>
				</g>
			</g>
			<g>
				<g>
					<rect x="34.7" y="234.8" class="st0" width="1.8" height="11.8"/>
				</g>
			</g>
			<g>
				<g>
					<rect x="34.7" y="273.4" class="st0" width="1.8" height="11.8"/>
				</g>
			</g>
			<g>
				<g>
					<rect x="45.2" y="254.1" class="st0" width="1.8" height="11.8"/>
				</g>
			</g>
			<g>
				<g>
					<rect x="45.2" y="234.8" class="st0" width="1.8" height="11.8"/>
				</g>
			</g>
			<g>
				<g>
					<rect x="45.2" y="273.4" class="st0" width="1.8" height="11.8"/>
				</g>
			</g>
			<g>
				<g>
					<rect x="24.1" y="254.1" class="st0" width="1.8" height="11.8"/>
				</g>
			</g>
			<g>
				<g>
					<rect x="24.1" y="234.8" class="st0" width="1.8" height="11.8"/>
				</g>
			</g>
			<g>
				<g>
					<rect x="24.1" y="273.4" class="st0" width="1.8" height="11.8"/>
				</g>
			</g>
			<g>
				<g>
					<rect x="65" y="254.1" class="st0" width="1.8" height="11.8"/>
				</g>
			</g>
			<g>
				<g>
					<rect x="65" y="273.4" class="st0" width="1.8" height="11.8"/>
				</g>
			</g>
			<g>
				<g>
					<rect x="75.5" y="254.1" class="st0" width="1.8" height="11.8"/>
				</g>
			</g>
			<g>
				<g>
					<rect x="75.5" y="273.4" class="st0" width="1.8" height="11.8"/>
				</g>
			</g>
		</g>
		<g>
			<g>
				<path class="st0" d="M61.8,56.7c-0.7,0-1.2,0.2-1.6,0.6c-0.4,0.4-0.5,1-0.5,1.8c0,0.8,0.2,1.4,0.6,1.8c0.4,0.4,0.9,0.6,1.6,0.6
					c0.4,0,0.7,0,0.9-0.1c0.3-0.1,0.5-0.2,0.7-0.3c0.1,0.1,0.3,0.3,0.4,0.4c0.1,0.2,0.1,0.4,0.1,0.6c0,0.4-0.2,0.7-0.6,0.9
					c-0.4,0.3-1,0.4-1.8,0.4c-0.6,0-1.1-0.1-1.7-0.3c-0.5-0.2-1-0.4-1.4-0.8c-0.4-0.3-0.7-0.8-0.9-1.3c-0.2-0.5-0.3-1.2-0.3-1.9
					c0-0.7,0.1-1.3,0.3-1.8s0.5-1,0.9-1.3c0.4-0.4,0.8-0.6,1.3-0.8c0.5-0.2,1-0.3,1.6-0.3c0.8,0,1.4,0.1,1.9,0.4s0.7,0.6,0.7,1
					c0,0.2-0.1,0.4-0.2,0.6c-0.1,0.2-0.2,0.3-0.4,0.4c-0.2-0.1-0.5-0.3-0.7-0.4C62.4,56.8,62.1,56.7,61.8,56.7z"/>
			</g>
			<g>
				<path class="st0" d="M65.4,59.1c0-0.7,0.1-1.3,0.3-1.8c0.2-0.5,0.5-1,0.9-1.3c0.4-0.4,0.8-0.6,1.3-0.8c0.5-0.2,1.1-0.3,1.6-0.3
					c0.6,0,1.1,0.1,1.6,0.3c0.5,0.2,0.9,0.5,1.3,0.8c0.4,0.4,0.7,0.8,0.9,1.3c0.2,0.5,0.3,1.1,0.3,1.8s-0.1,1.3-0.3,1.8
					s-0.5,1-0.9,1.3c-0.4,0.4-0.8,0.6-1.3,0.8c-0.5,0.2-1.1,0.3-1.7,0.3c-0.6,0-1.2-0.1-1.7-0.3s-1-0.5-1.3-0.8
					c-0.4-0.4-0.7-0.8-0.9-1.3C65.5,60.4,65.4,59.8,65.4,59.1z M67.7,59.1c0,0.8,0.2,1.4,0.5,1.8c0.3,0.4,0.8,0.6,1.3,0.6
					c0.6,0,1-0.2,1.3-0.6c0.3-0.4,0.5-1,0.5-1.8c0-0.8-0.2-1.4-0.5-1.8s-0.8-0.6-1.3-0.6c-0.5,0-1,0.2-1.3,0.6
					C67.9,57.7,67.7,58.3,67.7,59.1z"/>
			</g>
			<g>
				<path class="st0" d="M75.3,59.1c0-0.7,0.1-1.3,0.3-1.8c0.2-0.5,0.5-1,0.9-1.3c0.4-0.4,0.8-0.6,1.3-0.8c0.5-0.2,1.1-0.3,1.6-0.3
					c0.6,0,1.1,0.1,1.6,0.3c0.5,0.2,0.9,0.5,1.3,0.8c0.4,0.4,0.7,0.8,0.9,1.3c0.2,0.5,0.3,1.1,0.3,1.8s-0.1,1.3-0.3,1.8
					s-0.5,1-0.9,1.3c-0.4,0.4-0.8,0.6-1.3,0.8c-0.5,0.2-1.1,0.3-1.7,0.3c-0.6,0-1.2-0.1-1.7-0.3s-1-0.5-1.3-0.8
					c-0.4-0.4-0.7-0.8-0.9-1.3C75.4,60.4,75.3,59.8,75.3,59.1z M77.7,59.1c0,0.8,0.2,1.4,0.5,1.8c0.3,0.4,0.8,0.6,1.3,0.6
					c0.6,0,1-0.2,1.3-0.6c0.3-0.4,0.5-1,0.5-1.8c0-0.8-0.2-1.4-0.5-1.8s-0.8-0.6-1.3-0.6c-0.5,0-1,0.2-1.3,0.6
					C77.9,57.7,77.7,58.3,77.7,59.1z"/>
			</g>
			<g>
				<path class="st0" d="M88,63.1c-0.1,0-0.2,0.1-0.5,0.1c-0.2,0-0.4,0-0.6,0c-0.2,0-0.4,0-0.5,0c-0.2,0-0.3-0.1-0.4-0.2
					s-0.2-0.2-0.2-0.3c-0.1-0.1-0.1-0.3-0.1-0.6v-6.2c0-0.2,0.1-0.3,0.2-0.4c0.1-0.1,0.2-0.2,0.4-0.2c0.3-0.1,0.6-0.2,1-0.2
					c0.4,0,0.8-0.1,1.2-0.1c1.2,0,2.1,0.3,2.8,0.8c0.6,0.5,1,1.2,1,2.1c0,0.4-0.1,0.8-0.2,1.2c-0.1,0.3-0.3,0.6-0.6,0.9
					c-0.3,0.3-0.6,0.4-1,0.6c-0.4,0.1-0.9,0.2-1.4,0.2H88V63.1z M88.7,58.8c0.4,0,0.7-0.1,0.9-0.3c0.2-0.2,0.3-0.4,0.3-0.8
					c0-0.3-0.1-0.6-0.3-0.8c-0.2-0.2-0.5-0.3-0.9-0.3c-0.1,0-0.3,0-0.4,0c-0.1,0-0.2,0-0.3,0v2H88.7z"/>
			</g>
		</g>
		<g>
			<g>
				<path class="st0" d="M27.1,132.9c-0.1,0.2-0.1,0.4-0.2,0.6c0.6,0.5,1.1,0.9,1.7,1.3c0.1-0.5,0.3-0.9,0.4-1.4L27.1,132.9z"/>
			</g>
		</g>
		<g>
			<g>
				<rect x="273" y="69.1" class="st0" width="1.8" height="11.8"/>
			</g>
		</g>
		<g>
			<g>
				<rect x="283.5" y="69.1" class="st0" width="1.8" height="11.8"/>
			</g>
		</g>
		<g>
			<g>
				<rect x="262.4" y="69.1" class="st0" width="1.8" height="11.8"/>
			</g>
		</g>
		<g>
			<g>
				<rect x="305.5" y="69.1" class="st0" width="1.8" height="11.8"/>
			</g>
		</g>
		<g>
			<g>
				<rect x="316" y="69.1" class="st0" width="1.8" height="11.8"/>
			</g>
		</g>
		<g>
			<g>
				<rect x="295" y="69.1" class="st0" width="1.8" height="11.8"/>
			</g>
		</g>
		<g>
			<g>
				<rect x="272.7" y="268.6" class="st0" width="1.8" height="11.8"/>
			</g>
		</g>
		<g>
			<g>
				<rect x="283.2" y="268.6" class="st0" width="1.8" height="11.8"/>
			</g>
		</g>
		<g>
			<g>
				<rect x="262.2" y="268.6" class="st0" width="1.8" height="11.8"/>
			</g>
		</g>
		<g>
			<g>
				<rect x="305.3" y="268.6" class="st0" width="1.8" height="11.8"/>
			</g>
		</g>
		<g>
			<g>
				<rect x="315.8" y="268.6" class="st0" width="1.8" height="11.8"/>
			</g>
		</g>
		<g>
			<g>
				<rect x="294.8" y="268.6" class="st0" width="1.8" height="11.8"/>
			</g>
		</g>
		<g>
			<g>
				<path class="st0" d="M362.8,173.2l-4.7-2.4l-6.4-12.5h-11.1v-5.6c0-1.6-1.3-2.9-2.9-2.9h-7.3l0.2,0c-3.6-20.4-11.1-39.5-22.3-57
					h16.3V58.3l-25.1-12.5v11.5l-23.1-11.5v11.5l-9.5-5.1V31.6h-13.5v9.5c-23.3-13.1-49.7-20-76.6-20c-28.9,0-57.1,8-81.6,23
					c-4.7-6.6-12.3-10.5-20.5-10.5c-13.9,0-25.2,11.3-25.2,25.2c0,6.8,2.8,13.3,7.6,18.1c-3.5,4.1-6.8,8.5-9.8,12.9
					c-1.5-0.3-3-0.4-4.6-0.4c-13.7,0-24.9,11.2-24.9,24.9c0,7.7,3.5,14.6,9,19.2c0.1-0.2,0.1-0.4,0.2-0.6l1.9,0.6
					c-0.1,0.5-0.3,0.9-0.4,1.4c4,2.8,8.9,4.4,14.2,4.4c13.7,0,24.9-11.2,24.9-24.9c0-11.4-7.7-21-18.2-24c2.8-4.2,5.9-8.2,9.2-12.1
					c4.5,3.8,10.2,5.8,16.1,5.8c13.9,0,25.2-11.3,25.2-25.2c0-4.6-1.3-9.2-3.7-13.1c24.2-14.9,52-22.7,80.5-22.7
					c26.9,0,53.4,7,76.6,20.3v49.5h52.5c11.4,17.4,19,36.6,22.7,57h-26.9c-1.6,0-2.9,1.3-2.9,2.9v32.8c0,1.6,1.3,2.9,2.9,2.9h2.4
					c0.1,4,3.4,7.3,7.5,7.3c4.1,0,7.4-3.3,7.5-7.3h11.5c-1.6,22.3-7.9,43.6-18.7,63.1l-12.6-6.3v11.5l-23.1-11.5v11.5l-9.5-5.1
					v-20.6h-13.5v61.3h26.1c-28.2,25.1-64.5,38.9-102.4,38.9c-36.4,0-71.6-12.9-99.3-36.3h9.7v-50.8H57v-19.3H29.2l-1,0.3
					c0-0.1-0.1-0.2-0.1-0.3h-14V295h61l-0.3,0.3c28.3,24.5,64.6,38,102,38c39,0,76.3-14.4,105.1-40.7l-0.2-0.3h42.6v-34.6l-10.7-5.4
					c10.9-19.8,17.3-41.4,18.9-64h11.3c0.5,3.7,3.6,6.5,7.4,6.5c3.8,0,7-2.9,7.5-6.5h2.5c1.8,0,3.3-1.5,3.3-3.3v-8.9
					C364.6,174.9,363.9,173.8,362.8,173.2z M65.7,114.3c0,12.6-10.3,22.9-22.9,22.9s-22.9-10.3-22.9-22.9
					c0-12.6,10.3-22.9,22.9-22.9S65.7,101.7,65.7,114.3z M98,58.8c0,12.8-10.4,23.2-23.2,23.2c-5.8,0-11.3-2.1-15.6-6
					c-4.9-4.4-7.7-10.7-7.7-17.2C51.6,46,62,35.6,74.8,35.6c7.7,0,14.9,3.8,19.3,10.2C96.7,49.7,98,54.2,98,58.8z M255.4,90.9V33.6
					h9.5v19.8l13.5,7.2V49l23.1,11.5V49l21.1,10.5v31.3H255.4z M55.2,293.3H15.9v-66.6h39.4V293.3z M57,293.3V246h28.5v47.3H57z
					 M322.4,259v31.3h-67.2v-57.3h9.5v19.8l13.5,7.3v-11.6l23.1,11.5v-11.5L322.4,259z M311.5,193.7c-3,0-5.5-2.5-5.5-5.5
					c0-3,2.5-5.5,5.5-5.5c3,0,5.5,2.5,5.5,5.5C317.1,191.2,314.6,193.7,311.5,193.7z M338.6,186.4h-19.7c-0.8-3.3-3.8-5.7-7.3-5.7
					c-3.5,0-6.5,2.4-7.3,5.7h-2.6c-0.5,0-0.9-0.4-0.9-0.9v-32.8c0-0.5,0.4-0.9,0.9-0.9h36c0.5,0,0.9,0.4,0.9,0.9V186.4z
					 M340.6,160.4h9.9l5.2,10.3h-15.1V160.4z M351.4,192.9c-3,0-5.5-2.5-5.5-5.5s2.5-5.5,5.5-5.5c3,0,5.5,2.5,5.5,5.5
					S354.4,192.9,351.4,192.9z M362.6,185.1c0,0.7-0.6,1.3-1.3,1.3h-2.5c-0.5-3.7-3.6-6.5-7.5-6.5c-3.8,0-7,2.8-7.4,6.5h-3.4v-13.8
					h16.5l4.8,2.4c0.4,0.2,0.7,0.7,0.7,1.2V185.1z"/>
			</g>
		</g>
		<g>
			<g>
				<path class="st0" d="M293.4,176.8h-9.3c-0.6,0-1-0.4-1-1s0.4-1,1-1h9.3c0.6,0,1,0.4,1,1S293.9,176.8,293.4,176.8z"/>
			</g>
		</g>
		<g>
			<g>
				<path class="st0" d="M289.8,181.9h-9.3c-0.6,0-1-0.4-1-1s0.4-1,1-1h9.3c0.6,0,1,0.4,1,1S290.4,181.9,289.8,181.9z"/>
			</g>
		</g>
	</g>
</g>
<g id="Factoring">
</g>
</svg>
