<?xml version="1.0" encoding="UTF-8"?>
<svg width="51px" height="51px" viewBox="0 0 51 51" version="1.1" xmlns="http://www.w3.org/2000/svg" xmlns:xlink="http://www.w3.org/1999/xlink">
    <!-- Generator: Sketch 51.2 (57519) - http://www.bohemiancoding.com/sketch -->
    <title>Group</title>
    <desc>Created with Sketch.</desc>
    <defs></defs>
    <g id="Welcome" stroke="none" stroke-width="1" fill="none" fill-rule="evenodd">
        <g id="ABTRC-Page" transform="translate(-79.000000, -769.000000)">
            <g id="Group" transform="translate(79.000000, 769.000000)">
                <path d="M7.38613636,25.2085227 C7.38613636,15.3653409 15.3656818,7.38579545 25.2088636,7.38579545 C35.0509091,7.38579545 43.0304545,15.3653409 43.0304545,25.2085227 C43.0304545,35.0505682 35.0509091,43.03125 25.2088636,43.03125 C15.3656818,43.03125 7.38613636,35.0505682 7.38613636,25.2085227 Z" id="Stroke-1" stroke="#CB6D35" stroke-width="1.5"></path>
                <path d="M18.3047727,25.2085227 C18.3047727,22.6289773 18.5172727,20.1778409 18.8979545,17.9653409 C19.0161364,17.2846591 19.1490909,16.6267045 19.2979545,15.9948864 C20.5070455,10.8357955 22.7013636,7.38579545 25.2081818,7.38579545 C27.7161364,7.38579545 29.9115909,10.8380682 31.1206818,16.0005682 C31.7502273,18.6892045 32.1115909,21.8392045 32.1115909,25.2085227 C32.1115909,28.5801136 31.7490909,31.7323864 31.1195455,34.4198864 C29.9093182,39.5801136 27.715,43.03125 25.2081818,43.03125 C22.7013636,43.03125 20.5070455,39.5801136 19.2979545,34.4198864 C18.6672727,31.7323864 18.3047727,28.5801136 18.3047727,25.2085227 Z" id="Stroke-3" stroke="#CB6D35" stroke-width="1.5"></path>
                <path d="M7.38613636,25.2085227 C7.38613636,19.8164773 15.3656818,15.44375 25.2088636,15.44375 C35.0509091,15.44375 43.0304545,19.8164773 43.0304545,25.2085227 C43.0304545,30.6005682 35.0509091,34.9721591 25.2088636,34.9721591 C15.3656818,34.9721591 7.38613636,30.6005682 7.38613636,25.2085227 Z" id="Stroke-5" stroke="#CB6D35" stroke-width="1.5"></path>
                <path d="M21.4014773,25.2085227 C21.4014773,23.1051136 23.1060227,21.4005682 25.2082955,21.4005682 C27.3105682,21.4005682 29.0151136,23.1051136 29.0151136,25.2085227 C29.0151136,27.3107955 27.3105682,29.0153409 25.2082955,29.0153409 C23.1060227,29.0153409 21.4014773,27.3107955 21.4014773,25.2085227" id="Fill-7" fill="#CB6D35"></path>
                <path d="M47.3675,15.0845455 C48.7777273,18.1686364 49.5640909,21.5959091 49.5640909,25.2084091 C49.5640909,38.6595455 38.6595455,49.5652273 25.2084091,49.5652273 C21.5675,49.5652273 18.1140909,48.7663636 15.0118182,47.3345455" id="Stroke-9" stroke="#CB6D35" stroke-width="1.5" stroke-linecap="round"></path>
                <path d="M3.20636364,35.6678409 C1.69727273,32.4985227 0.851818182,28.9519318 0.851818182,25.20875 C0.851818182,11.7564773 11.7563636,0.851931818 25.2086364,0.851931818 C29.0279545,0.851931818 32.6415909,1.73147727 35.8586364,3.29852273" id="Stroke-11" stroke="#CB6D35" stroke-width="1.5" stroke-linecap="round"></path>
                <path d="M5.58727273,42.1486364 C5.58727273,40.8418182 6.6475,39.7815909 7.95431818,39.7815909 C9.26227273,39.7815909 10.3225,40.8418182 10.3225,42.1486364 C10.3225,43.4565909 9.26227273,44.5168182 7.95431818,44.5168182 C6.6475,44.5168182 5.58727273,43.4565909 5.58727273,42.1486364 Z" id="Stroke-13" stroke="#CB6D35" stroke-width="1.5" stroke-linecap="round"></path>
                <path d="M39.6781818,8.26738636 C39.6781818,6.96056818 40.7384091,5.90034091 42.0452273,5.90034091 C43.3531818,5.90034091 44.4134091,6.96056818 44.4134091,8.26738636 C44.4134091,9.57420455 43.3531818,10.6355682 42.0452273,10.6355682 C40.7384091,10.6355682 39.6781818,9.57420455 39.6781818,8.26738636 Z" id="Stroke-15" stroke="#CB6D35" stroke-width="1.5" stroke-linecap="round"></path>
            </g>
        </g>
    </g>
</svg>