<?xml version="1.0" encoding="UTF-8"?>
<svg width="52px" height="52px" viewBox="0 0 52 52" version="1.1" xmlns="http://www.w3.org/2000/svg" xmlns:xlink="http://www.w3.org/1999/xlink">
    <!-- Generator: Sketch 51.2 (57519) - http://www.bohemiancoding.com/sketch -->
    <title>Group</title>
    <desc>Created with Sketch.</desc>
    <defs></defs>
    <g id="Welcome" stroke="none" stroke-width="1" fill="none" fill-rule="evenodd" stroke-linecap="round">
        <g id="ABTRC-Page" transform="translate(-767.000000, -931.000000)" stroke="#CB6D35">
            <g id="Group" transform="translate(768.000000, 932.000000)">
                <path d="M7.14285714,26.4553908 L15.1321233,30.4290541 C16.7663447,31.2536621 17.682588,29.0676615 16.5270186,28.3657124 L13.4580142,26.4687497 C13.0192498,26.3035852 12.5007101,25.890674 13.2585758,25.7255095 L24.0587497,25.6842184 C25.4947059,25.6842184 25.8525218,23.2492566 24.0998106,23.2091799 L23.7807092,23.2091799 L23.7408215,23.2091799 L15.5697145,23.2091799 C15.3303885,23.2091799 15.1708378,23.0027243 15.2107255,22.7549776 C15.2517863,22.5898131 15.4101638,22.4659397 15.5697145,22.4659397 C15.8090405,22.3833575 16.1281419,22.425863 16.5270186,22.425863 L24.6171771,22.425863 C25.5345936,22.4659397 26.5306122,22.3420663 26.5306122,21.1045471 C26.5306122,19.700649 25.2154922,19.8257368 24.5374018,19.8257368 L18.1201792,19.8257368 C17.2837113,19.8257368 16.4061825,19.7844457 15.5697145,19.7844457 C15.4500515,19.7844457 15.3702762,19.7431545 15.2905008,19.6605723 C15.2107255,19.6192812 15.2107255,19.6192812 15.2107255,19.4966222 C15.1708378,19.2901666 15.3303885,19.0424199 15.5697145,19.0424199 L23.7408215,19.0424199 C24.5374018,19.0424199 25.2952676,19.083711 25.2952676,17.8449774 C25.2952676,16.6900404 24.5374018,16.6074581 23.7408215,16.6074581 L15.5697145,16.6074581 C15.0910624,16.6074581 15.0910624,15.8642179 15.5697145,15.8642179 L21.4285097,15.8642179 C21.627948,15.8642179 21.7874987,15.8229268 21.8273864,15.8229268 C23.0627311,15.4513067 23.1823941,13.3065972 21.3897952,13.2653061 L11.5398864,13.2653061" id="Stroke-1"></path>
                <path d="M43.877551,25.6552402 L37.3495103,22.621095 C35.7668841,21.8457024 34.8995956,23.9033826 35.9924726,24.5643928 L38.895902,26.3499632 C39.3096758,26.5438113 39.8005938,26.8929788 39.0840872,27.0482982 L28.8683171,27.086827 C27.5112794,27.086827 27.1723122,29.3792923 28.829745,29.4178211 L29.1324777,29.4178211 L29.169881,29.4178211 L36.8971644,29.4178211 C37.1239217,29.4178211 37.2747037,29.6116693 37.2361316,29.8440463 L37.2361316,29.8837791 C37.1987283,29.9993656 37.0479463,30.1161561 36.8971644,30.1161561 C36.6715758,30.1944178 36.3700119,30.1546849 35.9924726,30.1546849 L28.3411646,30.1546849 C27.5112794,30.1546849 26.5306122,30.2329466 26.5306122,31.3984437 C26.5306122,32.718056 27.7754401,32.6024695 28.4159712,32.6024695 L34.484653,32.6024695 C35.3145382,32.6024695 36.1058513,32.6409984 36.8971644,32.6409984 C37.010543,32.6409984 37.0853496,32.6795272 37.161325,32.7565848 C37.2361316,32.7963177 37.2361316,32.8348465 37.2361316,32.9119042 C37.2747037,33.1454852 37.1239217,33.3393334 36.8971644,33.3393334 L29.169881,33.3393334 C28.4533745,33.3393334 27.6994647,33.3008045 27.6994647,34.4650976 C27.6994647,35.553537 28.4159712,35.6305946 29.169881,35.6305946 L36.8971644,35.6305946 C37.3495103,35.6305946 37.3495103,36.3289296 36.8971644,36.3289296 L31.3568039,36.3289296 C31.1674498,36.3674585 31.0166678,36.3674585 30.9792646,36.3674585 C29.8104121,36.71783 29.6970335,38.7755102 31.4316104,38.7755102 L37.9900414,38.7755102" id="Stroke-3"></path>
                <path d="M7.14285714,25.5107896 C7.14285714,15.3665005 15.3665005,7.14285714 25.5107896,7.14285714 C35.6539077,7.14285714 43.877551,15.3665005 43.877551,25.5107896 C43.877551,35.6539077 35.6539077,43.877551 25.5107896,43.877551 C15.3665005,43.877551 7.14285714,35.6539077 7.14285714,25.5107896 Z" id="Stroke-5" stroke-width="1.5"></path>
                <path d="M47.7295365,14.2857143 C49.1871905,17.4790719 50,21.0302551 50,24.7721216 C50,38.704954 38.7287284,50 24.8252225,50 C21.0618675,50 17.4923182,49.1737055 14.2857143,47.6906127" id="Stroke-7" stroke-width="1.5"></path>
                <path d="M2.46956927,36.7346939 C0.88599226,33.3907073 0,29.6486556 0,25.6991784 C0,11.50552 11.4427749,0 25.5578359,0 C29.565669,0 33.3576682,0.928019226 36.7346939,2.58142816" id="Stroke-9" stroke-width="1.5"></path>
                <path d="M5.10204082,43.3667347 C5.10204082,41.9586841 6.24439841,40.8163265 7.65244903,40.8163265 C9.06172404,40.8163265 10.2040816,41.9586841 10.2040816,43.3667347 C10.2040816,44.7760098 9.06172404,45.9183673 7.65244903,45.9183673 C6.24439841,45.9183673 5.10204082,44.7760098 5.10204082,43.3667347 Z" id="Stroke-11" stroke-width="1.5"></path>
                <path d="M39.7959184,7.65306122 C39.7959184,6.24467262 40.938276,5.10204082 42.3463266,5.10204082 C43.7556016,5.10204082 44.8979592,6.24467262 44.8979592,7.65306122 C44.8979592,9.06144983 43.7556016,10.2040816 42.3463266,10.2040816 C40.938276,10.2040816 39.7959184,9.06144983 39.7959184,7.65306122 Z" id="Stroke-13" stroke-width="1.5"></path>
                <polyline id="Stroke-15" stroke-width="1.5" points="33.6734694 9.18367347 33.6734694 19.5523779 25.5102041 22.4489796"></polyline>
                <polyline id="Stroke-17" stroke-width="1.5" points="18.3673469 41.8367347 18.3673469 34.9864339 26.5306122 31.6326531"></polyline>
            </g>
        </g>
    </g>
</svg>