
<svg width="108px" height="108px" viewBox="0 0 108 108" version="1.1" xmlns="http://www.w3.org/2000/svg" xmlns:xlink="http://www.w3.org/1999/xlink">
    <!-- Generator: Sketch 51.2 (57519) - http://www.bohemiancoding.com/sketch -->
    <desc>Created with Sketch.</desc>
    <defs></defs>
    <g id="Welcome" stroke="none" stroke-width="1" fill="none" fill-rule="evenodd">
        <g id="Contact" transform="translate(-486.000000, -362.000000)" stroke="#000000" stroke-width="0.75">
            <path d="M487,415.932057 C487,386.698565 510.698565,363 539.932057,363 C569.16555,363 592.866986,386.698565 592.866986,415.932057 C592.866986,445.168421 569.16555,468.864115 539.932057,468.864115 C510.698565,468.864115 487,445.168421 487,415.932057 Z" id="Stroke-5"></path>
            <path d="M555.896651,465.797129 L555.896651,450.963636 C555.896651,449.0689 555.514833,447.194258 554.771292,445.448804 L552.43445,439.942584 C551.957895,438.822967 552.652632,437.559809 553.855502,437.367464 C555.262201,437.146411 556.990431,436.804785 558.867943,436.253589 C569.320574,433.201914 576.813397,423.487081 575.903349,412.638278 C575.854545,412.055502 575.782775,411.461244 575.685167,410.858373 C575.685167,410.858373 574.252632,402.266029 569.696651,397.058373 C569.696651,397.058373 573.210526,389.378947 569.044976,383 C569.044976,383 559.67177,384.039234 555.374163,389.24689 C555.374163,389.24689 544.180861,384.039234 529.861244,389.24689 C529.861244,389.24689 521.788517,383.261244 514.235407,383.780861 C514.235407,383.780861 511.111962,389.898565 514.235407,396.797129 C514.235407,396.797129 502.258373,409.296651 511.502392,425.700478 C511.502392,425.700478 515.854545,435.366507 530.260287,437.470813 C531.015311,437.579904 531.448804,438.383732 531.066986,439.044019 C530.452632,440.094737 529.697608,441.619139 529.42488,443.109091 C529.229665,444.179904 528.600957,445.138756 527.601914,445.566507 C525.57512,446.433493 522.044019,447.096651 518.400957,443.795215 C518.400957,443.795215 510.623923,433.632536 502.45933,434.861244 C502.195215,434.901435 502,435.139713 502,435.406699 L502,436.333971 C502,436.583732 502.169378,436.799043 502.413397,436.85933 C503.782775,437.192344 508.132057,438.458373 508.901435,441.191388 C508.901435,441.191388 514.889952,455.772249 525.954067,453.949282 L527.349282,453.949282 C528.026794,453.949282 528.586603,454.477512 528.621053,455.155024 C528.767464,458.157895 529.077512,465.797129 528.557895,466.896651" id="Stroke-7"></path>
        </g>
    </g>
</svg>
