<?xml version="1.0" encoding="utf-8"?>
<!-- Generator: Adobe Illustrator 21.1.0, SVG Export Plug-In . SVG Version: 6.00 Build 0)  -->
<svg version="1.1" id="Layer_1" xmlns="http://www.w3.org/2000/svg" xmlns:xlink="http://www.w3.org/1999/xlink" x="0px" y="0px"
	 viewBox="0 0 46.1 47.3" style="enable-background:new 0 0 46.1 47.3;" xml:space="preserve">
<style type="text/css">
	.st0{fill:#2C2C2C;}
</style>
<g>
	<g>
		<path class="st0" d="M24.6,42.9c-10.4,0-18.9-8.5-18.9-18.9S14.2,5,24.6,5s18.9,8.5,18.9,18.9S35.1,42.9,24.6,42.9z M24.6,6
			C14.7,6,6.7,14,6.7,23.9s8,17.9,17.9,17.9s17.9-8,17.9-17.9S34.5,6,24.6,6z"/>
	</g>
	<g>
		<path class="st0" d="M21.2,41.8l-0.9-0.4c0.1-0.2,0.1-1.5,0-3.9l-0.4,0.1c-4.1,0.7-6.3-4.5-6.4-4.8c-0.2-0.6-1.1-1-1.9-1.2
			C11.2,31.5,11,31.3,11,31v-0.3c0-0.3,0.3-0.6,0.6-0.7c3.1-0.5,5.9,3.1,6,3.3c1,0.9,2,0.7,2.6,0.5c0.2-0.1,0.3-0.4,0.3-0.5
			c0.1-0.5,0.3-1,0.5-1.4c-5.1-0.8-6.7-4.2-6.7-4.4c-2.9-5.1,0-9.3,0.8-10.4c-1-2.5,0.1-4.6,0.1-4.7l0.1-0.3l0.3,0
			c2.4-0.2,4.8,1.3,5.6,1.8c4.2-1.4,7.6-0.4,8.7,0c1.7-1.7,4.7-2.1,4.8-2.1l0.3,0l0.2,0.3c1.3,2,0.7,4.3,0.4,5.1
			c1.5,1.9,2,4.7,2,4.8c0,0.2,0.1,0.4,0.1,0.7c0.3,3.9-2.3,7.6-6.3,8.7c-0.6,0.2-1.2,0.3-1.8,0.4c-0.1,0-0.1,0-0.1,0.1
			c0,0,0,0.1,0,0.1l0.8,1.9c0.3,0.7,0.4,1.4,0.4,2.1v5.2h-1V36c0-0.6-0.1-1.2-0.4-1.7l-0.8-1.9c-0.1-0.3-0.1-0.7,0.1-1
			s0.5-0.5,0.8-0.6c0.6-0.1,1.2-0.2,1.7-0.4c3.5-1,5.9-4.3,5.6-7.7c0-0.2,0-0.4-0.1-0.6c0,0-0.5-2.9-2-4.6l-0.2-0.2l0.1-0.3
			c0,0,1-2.2,0-4.1c-0.8,0.1-3,0.6-4.1,2l-0.2,0.3L29.9,15c0,0-3.8-1.7-8.5,0l-0.3,0.1L20.9,15c0,0-2.5-1.8-4.8-1.8
			c-0.2,0.6-0.6,2.2,0.1,3.8l0.1,0.3l-0.2,0.2c-0.2,0.2-3.9,4.2-0.9,9.5c0.1,0.2,1.5,3.2,6.2,3.9c0.3,0,0.5,0.2,0.7,0.5
			c0.1,0.3,0.1,0.6,0,0.8c-0.2,0.3-0.4,0.8-0.5,1.3c-0.1,0.6-0.5,1-0.9,1.2c-0.7,0.3-2.2,0.7-3.7-0.7c-0.1-0.1-2-2.6-4.2-3
			c0.7,0.3,1.5,0.8,1.7,1.6l0,0c0,0,2,4.6,5.4,4.1l0.6,0c0.5,0,0.9,0.4,0.9,0.9C21.4,41.3,21.3,41.7,21.2,41.8z"/>
	</g>
</g>
</svg>
