<?xml version="1.0" encoding="utf-8"?>
<!-- Generator: Adobe Illustrator 21.1.0, SVG Export Plug-In . SVG Version: 6.00 Build 0)  -->
<svg version="1.1" id="Layer_1" xmlns="http://www.w3.org/2000/svg" xmlns:xlink="http://www.w3.org/1999/xlink" x="0px" y="0px"
	 viewBox="0 0 46.1 47.3" style="enable-background:new 0 0 46.1 47.3;" xml:space="preserve">
<style type="text/css">
	.st0{fill:#2C2C2C;}
</style>
<g>
	<g>
		<path class="st0" d="M24,33.2c-6,0-10.8-3.6-10.8-8.1s4.9-8.1,10.8-8.1s10.8,3.6,10.8,8.1S30,33.2,24,33.2z M24,18.1
			c-5.4,0-9.8,3.2-9.8,7.1s4.4,7.1,9.8,7.1s9.8-3.2,9.8-7.1S29.4,18.1,24,18.1z"/>
	</g>
	<g>
		<path class="st0" d="M13.3,25.9c-1.4-0.4-2.1-1.7-2.1-3.6c0-2.2,1.8-4,4-4c0.8,0,1.5,0.2,2.2,0.6l-0.5,0.8
			c-0.5-0.3-1.1-0.5-1.6-0.5c-1.7,0-3,1.4-3,3c0,0.8,0.2,2.2,1.4,2.6L13.3,25.9z"/>
	</g>
	<g>
		<path class="st0" d="M34.7,25.7l-0.3-1c1.2-0.4,1.4-1.8,1.4-2.6c0-1.7-1.4-3-3-3c-0.6,0-1.2,0.2-1.6,0.5l-0.5-0.8
			c0.7-0.4,1.4-0.6,2.2-0.6c2.2,0,4,1.8,4,4C36.9,24,36.1,25.3,34.7,25.7z"/>
	</g>
	<g>
		<path class="st0" d="M20.2,25.6c-1.1,0-2-0.9-2-2s0.9-2,2-2s2,0.9,2,2S21.4,25.6,20.2,25.6z M20.2,22.5c-0.6,0-1,0.5-1,1
			s0.5,1,1,1s1-0.5,1-1S20.8,22.5,20.2,22.5z"/>
	</g>
	<g>
		<path class="st0" d="M27.6,25.6c-1.1,0-2-0.9-2-2s0.9-2,2-2s2,0.9,2,2S28.8,25.6,27.6,25.6z M27.6,22.5c-0.6,0-1,0.5-1,1
			s0.5,1,1,1s1-0.5,1-1S28.2,22.5,27.6,22.5z"/>
	</g>
	<g>
		<path class="st0" d="M24.1,29.7c-2.6,0-4.7-1.7-4.7-1.7l0.6-0.8c0.2,0.1,4.1,3.2,7.7,0l0.7,0.8C27,29.2,25.5,29.7,24.1,29.7z"/>
	</g>
	<g>
		<polygon class="st0" points="24.3,17.7 23.4,17.4 25.5,11.8 29.7,13 29.5,14 26.1,13 		"/>
	</g>
	<g>
		<path class="st0" d="M31.9,17c-1.6,0-2.8-1.3-2.8-2.8s1.3-2.8,2.8-2.8s2.8,1.3,2.8,2.8S33.4,17,31.9,17z M31.9,12.3
			c-1,0-1.8,0.8-1.8,1.8s0.8,1.8,1.8,1.8s1.8-0.8,1.8-1.8S32.9,12.3,31.9,12.3z"/>
	</g>
	<g>
		<path class="st0" d="M24.2,42.6c-10.4,0-18.9-8.5-18.9-18.9S13.8,4.7,24.2,4.7s18.9,8.5,18.9,18.9S34.7,42.6,24.2,42.6z M24.2,5.7
			c-9.9,0-17.9,8-17.9,17.9s8,17.9,17.9,17.9s17.9-8,17.9-17.9S34.1,5.7,24.2,5.7z"/>
	</g>
</g>
</svg>
