
<svg width="108px" height="108px" viewBox="0 0 108 108" version="1.1" xmlns="http://www.w3.org/2000/svg" xmlns:xlink="http://www.w3.org/1999/xlink">
    <!-- Generator: Sketch 51.2 (57519) - http://www.bohemiancoding.com/sketch -->
    <desc>Created with Sketch.</desc>
    <defs></defs>
    <g id="Welcome" stroke="none" stroke-width="1" fill="none" fill-rule="evenodd">
        <g id="Contact" transform="translate(-1076.000000, -363.000000)">
            <path d="M1100,420.703349 C1100,408.717703 1113.26603,399 1129.62967,399 C1145.9933,399 1159.2622,408.717703 1159.2622,420.703349 C1159.2622,432.688995 1145.9933,442.406699 1129.62967,442.406699 C1113.26603,442.406699 1100,432.688995 1100,420.703349 Z" id="Stroke-13" stroke="#000000" stroke-width="0.75"></path>
            <path d="M1099.10431,422.010526 C1095.111,420.715789 1094,416.601914 1094,413.111005 C1094,407.527273 1098.52727,403 1104.111,403 C1106.13206,403 1108.01531,403.594258 1109.59713,404.619139" id="Stroke-15" stroke="#000000" stroke-width="0.75"></path>
            <path d="M1159.49282,422.010526 C1163.48612,420.715789 1164.59713,416.601914 1164.59713,413.113876 C1164.59713,407.530144 1160.07273,403 1154.489,403 C1152.46507,403 1150.58182,403.594258 1149,404.619139" id="Stroke-17" stroke="#000000" stroke-width="0.75"></path>
            <path d="M1114,416.449761 C1114,413.992344 1115.99234,412 1118.44976,412 C1120.90718,412 1122.89952,413.992344 1122.89952,416.449761 C1122.89952,418.907177 1120.90718,420.899522 1118.44976,420.899522 C1115.99234,420.899522 1114,418.907177 1114,416.449761" id="Fill-19" fill="#000000"></path>
            <path d="M1136,416.449761 C1136,413.992344 1137.99234,412 1140.44976,412 C1142.90431,412 1144.89952,413.992344 1144.89952,416.449761 C1144.89952,418.907177 1142.90431,420.899522 1140.44976,420.899522 C1137.99234,420.899522 1136,418.907177 1136,416.449761" id="Fill-21" fill="#000000"></path>
            <path d="M1117,428 C1117,428 1129.43636,438.162679 1140.96555,428" id="Stroke-23" stroke="#000000" stroke-width="0.75" stroke-linecap="round"></path>
            <polyline id="Stroke-25" stroke="#000000" stroke-width="0.75" stroke-linecap="round" points="1129 399.741627 1134.61531 385 1145.53589 388.083254"></polyline>
            <path d="M1145,389.717703 C1145,386.008612 1148.00861,383 1151.7177,383 C1155.42679,383 1158.43541,386.008612 1158.43541,389.717703 C1158.43541,393.426794 1155.42679,396.435407 1151.7177,396.435407 C1148.00861,396.435407 1145,393.426794 1145,389.717703 Z" id="Stroke-27" stroke="#000000" stroke-width="0.75" stroke-linecap="round"></path>
            <path d="M1077,416.932057 C1077,387.698565 1100.69856,364 1129.93206,364 C1159.16555,364 1182.86699,387.698565 1182.86699,416.932057 C1182.86699,446.16555 1159.16555,469.864115 1129.93206,469.864115 C1100.69856,469.864115 1077,446.16555 1077,416.932057 Z" id="Stroke-29" stroke="#000000" stroke-width="0.75"></path>
        </g>
    </g>
</svg>
