<?xml version="1.0" encoding="utf-8"?>
<!-- Generator: Adobe Illustrator 21.1.0, SVG Export Plug-In . SVG Version: 6.00 Build 0)  -->
<svg version="1.1" id="Layer_1" xmlns="http://www.w3.org/2000/svg" xmlns:xlink="http://www.w3.org/1999/xlink" x="0px" y="0px"
	 viewBox="0 0 46.1 47.3" style="enable-background:new 0 0 46.1 47.3;" xml:space="preserve">
<style type="text/css">
	.st0{fill:#2C2C2C;}
	.st1{fill:#2C2C2C;stroke:#86C7A4;stroke-miterlimit:10;}
</style>
<g>
	<g>
		<path class="st0" d="M29,34.5c-0.1,0-0.3,0-0.4-0.1l-5.3-3.7l-3.2,2.7c-0.2,0.2-0.5,0.2-0.7,0.2c-0.3-0.1-0.5-0.2-0.6-0.5
			l-2.9-6.9l-5.4-1.8C10.2,24.3,10,24,10,23.7s0.2-0.6,0.5-0.7L33,14.4c0.3-0.1,0.5,0,0.7,0.1c0.2,0.2,0.3,0.5,0.2,0.7L29.7,34
			c-0.1,0.2-0.2,0.4-0.5,0.5C29.2,34.5,29.1,34.5,29,34.5z M23.2,29.4l5.7,3.9l4.1-17.9l-21.3,8.2l5.1,1.7l2.9,7.1L23.2,29.4z
			 M33.3,15.3L33.3,15.3C33.3,15.3,33.3,15.3,33.3,15.3L33.3,15.3z"/>
	</g>
	<g>
		<path class="st1" d="M23.2,30"/>
	</g>
	<g>
		<path class="st0" d="M28.3,34.2L19,27.5l5.3-5.2l-7.8,3.9l-0.4-0.9l10-5c0.3-0.1,0.6-0.1,0.7,0.2c0.2,0.2,0.2,0.6,0,0.8l-6.2,6.2
			l8.3,6L28.3,34.2z"/>
	</g>
	<g>
		<rect x="19.1" y="27.5" class="st0" width="1" height="5.2"/>
	</g>
	<g>
		<path class="st0" d="M24,42.6c-10.4,0-18.9-8.5-18.9-18.9S13.6,4.7,24,4.7S43,13.2,43,23.6S34.5,42.6,24,42.6z M24,5.7
			c-9.9,0-17.9,8-17.9,17.9s8,17.9,17.9,17.9S42,33.5,42,23.6S33.9,5.7,24,5.7z"/>
	</g>
</g>
</svg>
