<?xml version="1.0" encoding="utf-8"?>
<!-- Generator: Adobe Illustrator 21.1.0, SVG Export Plug-In . SVG Version: 6.00 Build 0)  -->
<svg version="1.1" id="Layer_1" xmlns="http://www.w3.org/2000/svg" xmlns:xlink="http://www.w3.org/1999/xlink" x="0px" y="0px"
	 viewBox="0 0 46.1 45.8" style="enable-background:new 0 0 46.1 45.8;" xml:space="preserve">
<g>
	<g>
		<path d="M22.1,28.9"/>
	</g>
	<g>
		<path d="M22.9,3.7c-10.4,0-18.8,8.4-18.8,18.8c0,10.4,8.4,18.8,18.8,18.8c10.4,0,18.8-8.4,18.8-18.8C41.7,12.1,33.3,3.7,22.9,3.7z
			 M22.9,40.6c-10,0-18.1-8.1-18.1-18.1c0-10,8.1-18.1,18.1-18.1S41,12.5,41,22.5C41,32.5,32.9,40.6,22.9,40.6z"/>
		<path d="M32.5,13.5c-0.1-0.1-0.3-0.1-0.4-0.1c-0.1,0-0.2,0-0.2,0L9.4,22C9.2,22,9,22.3,9.1,22.5c0,0.3,0.2,0.5,0.4,0.6l5.4,1.8
			l2.9,7c0.1,0.2,0.3,0.4,0.5,0.4c0.2,0,0.4,0,0.6-0.2l3.2-2.8l4.9,3.4l0.2,0.2l0.3,0.2c0.1,0.1,0.2,0.1,0.4,0.1c0.1,0,0.1,0,0.2,0
			c0.2-0.1,0.3-0.2,0.4-0.4l4.3-18.7C32.8,13.8,32.7,13.6,32.5,13.5z M18.2,26.4L18.2,26.4l0,4.3l-2.4-5.9l8.2-4.1L18.2,26.4
			L18.2,26.4z M18.5,31.6L18.5,31.6L18.5,31.6L18.5,31.6z M18.9,31.2v-4.3l2.7,1.9L18.9,31.2z M27.8,32.4l-0.1-0.1l-8.4-6.1l6.3-6.3
			c0.2-0.2,0.2-0.4,0-0.6c-0.1-0.2-0.4-0.2-0.6-0.1l-9.9,4.9l-5.1-1.7l21.9-8.4L27.8,32.4z"/>
	</g>
</g>
</svg>
