
<svg width="108px" height="108px" viewBox="0 0 108 108" version="1.1" xmlns="http://www.w3.org/2000/svg" xmlns:xlink="http://www.w3.org/1999/xlink">
    <!-- Generator: Sketch 51.2 (57519) - http://www.bohemiancoding.com/sketch -->
    <desc>Created with Sketch.</desc>
    <defs></defs>
    <g id="Welcome" stroke="none" stroke-width="1" fill="none" fill-rule="evenodd">
        <g id="Contact" transform="translate(-250.000000, -363.000000)" stroke="#000000" stroke-width="0.75">
            <path d="M332.184326,400.062201 C330.720212,402.244019 328.940307,404.138756 326.873322,405.717703 C327.077149,414.358852 323.658011,423.229665 317.600594,429.545455 C313.34892,433.995215 305.858968,439.277512 294.174757,439.277512 C287.916384,439.277512 281.830259,437.497608 276.547963,434.110048 C276.088633,433.822967 275.890546,433.220096 276.059924,432.703349 C276.260881,432.186603 276.806336,431.842105 277.325953,431.92823 C281.916384,432.444976 286.480977,431.497608 290.382413,429.258373 C286.538393,428.138756 283.380499,425.15311 282.088633,421.191388 C281.9738,420.789474 282.059924,420.358852 282.349877,420.043062 C282.547963,419.813397 282.837915,419.669856 283.150834,419.641148 C280.021647,417.315789 278.069494,413.583732 278.155618,409.62201 C278.181456,409.191388 278.413991,408.818182 278.76136,408.588517 C279.131695,408.38756 279.591025,408.38756 279.935523,408.588517 C280.107771,408.703349 280.308728,408.789474 280.480977,408.875598 C277.813991,405.057416 277.437915,399.889952 279.906814,395.641148 C280.107771,395.296651 280.452269,395.066986 280.854183,395.038278 C281.256097,395.009569 281.632173,395.181818 281.887676,395.4689 C286.997724,401.727273 294.375714,405.688995 302.356575,406.492823 C302.040786,403.334928 302.959446,400.177033 304.969015,397.650718 C307.294374,394.69378 310.796767,393 314.557532,393 C317.715427,393 320.758489,394.23445 323.05514,396.38756 C325.150834,395.92823 327.189111,395.095694 329.083848,393.976077 C329.51447,393.746411 330.031216,393.77512 330.436001,394.090909 C330.835044,394.406699 330.978585,394.923445 330.835044,395.382775 C330.404422,396.674641 329.772843,397.909091 328.969015,398.971292 C329.571886,398.770335 330.117341,398.569378 330.691503,398.311005 C331.179542,398.08134 331.753704,398.22488 332.101073,398.626794 C332.4427,399.028708 332.471408,399.631579 332.184326,400.062201 Z" id="Stroke-1"></path>
            <path d="M251,416.932057 C251,387.698565 274.698565,364 303.932057,364 C333.16555,364 356.866986,387.698565 356.866986,416.932057 C356.866986,446.168421 333.16555,469.864115 303.932057,469.864115 C274.698565,469.864115 251,446.168421 251,416.932057 Z" id="Stroke-3"></path>
        </g>
    </g>
</svg>
