<?xml version="1.0" encoding="UTF-8"?>
<svg width="64px" height="64px" viewBox="0 0 64 64" version="1.1" xmlns="http://www.w3.org/2000/svg" xmlns:xlink="http://www.w3.org/1999/xlink">
    <!-- Generator: Sketch 51.2 (57519) - http://www.bohemiancoding.com/sketch -->
    <title>Group</title>
    <desc>Created with Sketch.</desc>
    <defs></defs>
    <g id="Welcome" stroke="none" stroke-width="1" fill="none" fill-rule="evenodd">
        <g id="Homepage" transform="translate(-940.000000, -1564.000000)">
            <g id="Developed-features" transform="translate(98.000000, 1187.000000)">
                <g id="Icons" transform="translate(0.000000, 144.000000)">
                    <g id="Group" transform="translate(842.000000, 233.000000)">
                        <path d="M63.4685,31.7342 C63.4685,49.2602 49.2605,63.4682 31.7345,63.4682 C14.2075,63.4682 0.0005,49.2602 0.0005,31.7342 C0.0005,14.2082 14.2075,0.0002 31.7345,0.0002 C49.2605,0.0002 63.4685,14.2082 63.4685,31.7342" id="Fill-1" fill="#86C7A4"></path>
                        <path d="M19.552,6.909 L28.635,7.825 L39.34,14.756 C40.932,15.786 41.894,17.554 41.894,19.451 L41.894,20.529 C41.894,21.959 40.735,23.117 39.306,23.117 C37.877,23.117 36.719,21.959 36.719,20.529 C36.719,19.674 36.184,18.91 35.38,18.617 L25.808,15.138 C25.119,14.887 24.351,15.163 23.979,15.794 C23.499,16.608 23.87,17.658 24.756,17.989 L29.234,19.663 C30.532,20.148 31.13,21.645 30.524,22.891 C30.003,23.964 28.761,24.476 27.635,24.083 L10.219,17.992" id="Stroke-3" stroke="#FCF4F0" stroke-width="1.5" stroke-linecap="round"></path>
                        <path d="M38.3376,27.7225 C38.3376,29.4665 36.9226,30.8815 35.1786,30.8815 C33.4336,30.8815 32.0196,29.4665 32.0196,27.7225 C32.0196,26.9035 32.3306,26.1575 32.8416,25.5955 C33.4206,24.9605 34.2526,24.5635 35.1786,24.5635 C35.7316,24.5635 36.2506,24.7045 36.7026,24.9535 C37.4556,25.3695 38.0216,26.0835 38.2396,26.9375 C38.3036,27.1885 38.3376,27.4515 38.3376,27.7225 Z" id="Stroke-5" stroke="#FCF4F0" stroke-width="1.5" stroke-linecap="round"></path>
                        <path d="M35.1785,31.4979 L35.1785,35.9599" id="Stroke-7" stroke="#FCF4F0" stroke-width="1.5" stroke-linecap="round"></path>
                        <path d="M35.178,42.4217 C33.998,42.4217 33.038,41.4617 33.038,40.2807 C33.038,39.0917 33.998,38.1317 35.178,38.1317 C36.358,38.1317 37.318,39.0917 37.318,40.2807 C37.318,41.4617 36.358,42.4217 35.178,42.4217 M35.178,33.6607 C31.518,33.6607 28.558,36.6207 28.558,40.2807 C28.558,43.9317 31.518,46.9007 35.178,46.9007 C38.838,46.9007 41.798,43.9317 41.798,40.2807 C41.798,36.6207 38.838,33.6607 35.178,33.6607" id="Fill-9" fill="#FCF4F0"></path>
                        <path d="M33.9124,43.0907 L33.9124,55.7567 C33.9124,56.2897 34.5074,56.6067 34.9494,56.3087 L37.1034,54.8567 C37.4414,54.6287 37.4974,54.1537 37.2214,53.8547 L36.3644,52.9227 C36.0714,52.6037 36.0994,52.1067 36.4254,51.8207 L37.0584,51.2717 C37.4344,50.9447 37.4674,50.3707 37.1294,50.0037 L36.2464,49.0447 C35.9894,48.7647 35.9024,48.3657 36.0204,48.0037 L37.3294,44.0077 L33.9124,43.0907 Z" id="Fill-11" fill="#FCF4F0"></path>
                    </g>
                </g>
            </g>
        </g>
    </g>
</svg>