<?xml version="1.0" encoding="UTF-8"?>
<svg width="64px" height="64px" viewBox="0 0 64 64" version="1.1" xmlns="http://www.w3.org/2000/svg" xmlns:xlink="http://www.w3.org/1999/xlink">
    <!-- Generator: Sketch 51.2 (57519) - http://www.bohemiancoding.com/sketch -->
    <title>Group</title>
    <desc>Created with Sketch.</desc>
    <defs>
        <polygon id="path-1" points="0 0.5321 63.4686 0.5321 63.4686 64 0 64"></polygon>
    </defs>
    <g id="Welcome" stroke="none" stroke-width="1" fill="none" fill-rule="evenodd">
        <g id="Homepage" transform="translate(-98.000000, -1796.000000)">
            <g id="Developed-features" transform="translate(98.000000, 1187.000000)">
                <g id="Icons" transform="translate(0.000000, 144.000000)">
                    <g id="Group" transform="translate(0.000000, 464.000000)">
                        <g id="Group-6" transform="translate(0.000000, 0.468600)">
                            <g id="Group-3">
                                <mask id="mask-2" fill="white">
                                    <use xlink:href="#path-1"></use>
                                </mask>
                                <g id="Clip-2"></g>
                                <path d="M63.4686,32.2661 C63.4686,49.7921 49.2606,64.0001 31.7346,64.0001 C14.2076,64.0001 -0.0004,49.7921 -0.0004,32.2661 C-0.0004,14.7401 14.2076,0.5321 31.7346,0.5321 C49.2606,0.5321 63.4686,14.7401 63.4686,32.2661" id="Fill-1" fill="#86C7A4" mask="url(#mask-2)"></path>
                            </g>
                            <path d="M33.1195,40.9506 L33.1375,41.1086 C33.1405,41.2666 33.1565,41.3756 33.1585,41.4776 L31.6925,41.4776 C31.6955,41.3346 31.7535,41.1486 31.7635,40.9096 C31.7785,40.5696 31.8365,40.3266 31.8365,40.1646 L31.8365,39.8966 L31.5205,39.8566 C30.5835,39.7176 29.6565,39.4076 28.8305,38.9486 C28.5345,38.7606 28.3665,38.6466 28.2865,38.5826 C28.4545,38.1596 28.8275,37.4986 29.4115,36.6116 C29.4855,36.6446 29.5805,36.6976 29.7075,36.7836 C30.0195,36.9956 30.1245,37.0546 30.1855,37.0816 C30.8635,37.4466 31.6615,37.6326 32.5575,37.6326 C33.8115,37.6326 33.9985,36.9056 33.9985,36.4716 C33.9985,35.8486 33.6925,35.3046 33.0775,34.8436 C32.9385,34.7506 32.6195,34.5616 32.1005,34.2656 C31.5995,33.9786 31.2475,33.7726 31.0565,33.6526 C30.8685,33.5336 30.5845,33.3236 30.2135,33.0296 C29.8565,32.7466 29.6035,32.4956 29.4635,32.2846 C29.3165,32.0646 29.1735,31.7766 29.0365,31.4296 C28.9065,31.0976 28.8405,30.7436 28.8405,30.3786 C28.8405,28.6446 29.7385,27.6126 31.5925,27.2226 L31.8365,27.1706 L31.8365,26.9186 C31.8365,26.7986 31.8325,26.6106 31.8175,26.3556 C31.8045,26.1156 31.7985,25.8296 31.7985,25.7016 C31.7985,25.6706 31.8055,25.6426 31.8105,25.6236 L33.2465,25.6236 C33.2765,25.7256 33.2895,25.8156 33.2895,25.8426 C33.2895,26.1336 33.2985,26.5366 33.3365,26.8046 L33.3715,27.0476 L33.6155,27.0706 C34.0175,27.1076 34.5215,27.2266 35.1985,27.4456 C35.2445,27.4766 35.3035,27.5096 35.3745,27.5426 C35.4615,27.5816 35.5505,27.6326 35.6435,27.6846 L35.9485,27.8606 C35.9995,27.8896 36.0455,27.9176 36.0895,27.9446 C36.0305,28.0706 35.9085,28.3066 35.6595,28.7446 C35.3185,29.3406 35.1445,29.6086 35.0565,29.7286 C34.9515,29.6906 34.7545,29.6156 34.3905,29.4706 C33.8265,29.2426 33.3895,29.1326 33.0555,29.1326 C32.7175,29.1326 32.4015,29.2306 32.1175,29.4266 C31.8015,29.6426 31.6345,29.9576 31.6345,30.3346 C31.6345,30.4896 31.6645,30.6416 31.7225,30.7886 C31.7725,30.9146 31.8295,31.0266 31.8905,31.1226 C31.9605,31.2326 32.0785,31.3536 32.2525,31.4916 C32.4085,31.6166 32.5375,31.7116 32.6475,31.7826 C32.7485,31.8466 32.9255,31.9636 33.1785,32.1296 C33.4275,32.2926 33.6305,32.4306 33.8055,32.5566 C33.9205,32.6296 34.1175,32.7586 34.3955,32.9436 L34.9835,33.3366 C35.0885,33.4056 35.2455,33.5216 35.4565,33.6826 C35.7055,33.8746 35.8235,33.9896 35.8785,34.0546 C35.9675,34.1566 36.0795,34.2996 36.2105,34.4786 C36.3295,34.6426 36.4145,34.7946 36.4615,34.9306 C36.5155,35.0876 36.5675,35.2766 36.6155,35.4936 C36.6605,35.7046 36.6835,35.9296 36.6835,36.1676 C36.6835,37.1096 36.3805,37.8906 35.7565,38.5556 C35.1305,39.2216 34.3045,39.6566 33.3575,39.8456 L33.0795,39.8956 L33.0795,40.1496 C33.0795,40.3256 33.1125,40.5936 33.1195,40.9506 M32.4575,21.3736 C25.6575,21.3736 20.1255,26.9056 20.1255,33.7066 C20.1255,40.5066 25.6575,46.0396 32.4575,46.0396 C39.2585,46.0396 44.7905,40.5066 44.7905,33.7066 C44.7905,26.9056 39.2585,21.3736 32.4575,21.3736" id="Fill-4" fill="#FCF4F0"></path>
                        </g>
                        <g id="Group-23" transform="translate(9.000000, 7.468600)">
                            <path d="M8.0262,5.6352 C7.5252,5.9182 7.2282,6.2892 7.1342,6.7442 C7.0402,7.2012 7.1512,7.7092 7.4682,8.2692 C7.7882,8.8352 8.1832,9.1872 8.6512,9.3242 C9.1212,9.4642 9.6052,9.3922 10.1062,9.1082 C10.3732,8.9572 10.5792,8.7932 10.7242,8.6172 C10.8692,8.4412 11.0002,8.2592 11.1172,8.0722 C11.2792,8.1002 11.4272,8.1612 11.5612,8.2532 C11.6942,8.3452 11.8092,8.4762 11.9052,8.6442 C12.0562,8.9112 12.0352,9.2212 11.8442,9.5732 C11.6532,9.9262 11.2552,10.2742 10.6512,10.6162 C10.2142,10.8632 9.7702,11.0322 9.3162,11.1262 C8.8622,11.2202 8.4202,11.2192 7.9882,11.1232 C7.5562,11.0292 7.1472,10.8312 6.7582,10.5312 C6.3702,10.2322 6.0212,9.8092 5.7122,9.2632 C5.4252,8.7552 5.2522,8.2632 5.1922,7.7862 C5.1322,7.3092 5.1662,6.8592 5.2912,6.4352 C5.4172,6.0122 5.6262,5.6272 5.9202,5.2812 C6.2132,4.9352 6.5712,4.6422 6.9942,4.4032 C7.5922,4.0642 8.1112,3.9002 8.5502,3.9082 C8.9892,3.9182 9.2952,4.0762 9.4682,4.3812 C9.5632,4.5512 9.6042,4.7212 9.5892,4.8932 C9.5742,5.0652 9.5322,5.2172 9.4622,5.3512 C9.2302,5.3362 8.9962,5.3442 8.7602,5.3742 C8.5252,5.4052 8.2792,5.4912 8.0262,5.6352" id="Fill-7" fill="#FCF4F0"></path>
                            <path d="M15.9212,4.728 C16.0452,5.396 16.2742,5.871 16.6072,6.15 C16.9402,6.43 17.3352,6.529 17.7902,6.444 C18.2532,6.358 18.5902,6.125 18.8002,5.745 C19.0102,5.362 19.0542,4.837 18.9302,4.169 C18.8072,3.507 18.5812,3.037 18.2512,2.755 C17.9212,2.474 17.5262,2.377 17.0632,2.463 C16.6082,2.547 16.2722,2.78 16.0572,3.157 C15.8422,3.535 15.7962,4.058 15.9212,4.728 M13.9372,5.095 C13.8302,4.522 13.8262,3.999 13.9252,3.525 C14.0232,3.049 14.2012,2.635 14.4582,2.28 C14.7142,1.923 15.0402,1.629 15.4342,1.397 C15.8282,1.165 16.2712,1.002 16.7632,0.912 C17.2562,0.82 17.7272,0.812 18.1782,0.888 C18.6292,0.963 19.0412,1.121 19.4122,1.361 C19.7832,1.599 20.0992,1.922 20.3622,2.33 C20.6242,2.738 20.8082,3.227 20.9142,3.8 C21.0202,4.374 21.0262,4.9 20.9332,5.376 C20.8392,5.854 20.6632,6.27 20.4062,6.626 C20.1492,6.981 19.8222,7.276 19.4242,7.509 C19.0272,7.742 18.5782,7.906 18.0782,7.999 C17.5792,8.091 17.1012,8.098 16.6462,8.019 C16.1902,7.94 15.7802,7.778 15.4162,7.536 C15.0512,7.291 14.7402,6.964 14.4822,6.556 C14.2232,6.148 14.0422,5.662 13.9372,5.095" id="Fill-9" fill="#FCF4F0"></path>
                            <path d="M26.5794,4.2573 C26.4444,4.9243 26.4784,5.4503 26.6834,5.8343 C26.8874,6.2193 27.2164,6.4573 27.6704,6.5493 C28.1324,6.6433 28.5314,6.5523 28.8694,6.2783 C29.2074,6.0033 29.4434,5.5323 29.5784,4.8653 C29.7124,4.2063 29.6784,3.6853 29.4784,3.3013 C29.2774,2.9173 28.9464,2.6793 28.4854,2.5853 C28.0314,2.4933 27.6344,2.5823 27.2924,2.8533 C26.9524,3.1233 26.7144,3.5913 26.5794,4.2573 M24.6014,3.8573 C24.7174,3.2853 24.9094,2.7983 25.1784,2.3953 C25.4464,1.9923 25.7664,1.6733 26.1384,1.4413 C26.5094,1.2063 26.9214,1.0563 27.3734,0.9873 C27.8264,0.9183 28.2974,0.9343 28.7884,1.0333 C29.2794,1.1333 29.7194,1.3033 30.1094,1.5413 C30.4994,1.7803 30.8214,2.0803 31.0774,2.4423 C31.3314,2.8023 31.5044,3.2203 31.5944,3.6953 C31.6844,4.1713 31.6724,4.6943 31.5564,5.2673 C31.4404,5.8383 31.2494,6.3273 30.9844,6.7353 C30.7184,7.1433 30.4004,7.4623 30.0284,7.6963 C29.6574,7.9303 29.2434,8.0803 28.7874,8.1483 C28.3314,8.2163 27.8544,8.1983 27.3564,8.0983 C26.8584,7.9973 26.4124,7.8243 26.0194,7.5813 C25.6264,7.3383 25.3074,7.0353 25.0604,6.6723 C24.8134,6.3093 24.6474,5.8913 24.5604,5.4153 C24.4734,4.9403 24.4874,4.4213 24.6014,3.8573" id="Fill-11" fill="#FCF4F0"></path>
                            <path d="M37.4408,7.7465 C37.7178,7.8935 37.9648,7.9415 38.1818,7.8925 C38.3988,7.8425 38.5768,7.6855 38.7168,7.4215 C38.8498,7.1705 38.8748,6.9355 38.7918,6.7195 C38.7088,6.5005 38.5188,6.3125 38.2208,6.1555 C38.1148,6.0995 38.0268,6.0555 37.9558,6.0205 C37.8848,5.9885 37.8098,5.9595 37.7308,5.9335 L36.9158,7.4685 L37.4408,7.7465 Z M35.2398,10.6525 C35.1558,10.6335 35.0318,10.5925 34.8658,10.5305 C34.7008,10.4685 34.5418,10.3965 34.3908,10.3155 C34.2378,10.2345 34.1098,10.1525 34.0078,10.0685 C33.9038,9.9835 33.8288,9.8915 33.7808,9.7895 C33.7328,9.6875 33.7178,9.5745 33.7338,9.4485 C33.7508,9.3215 33.8038,9.1725 33.8948,9.0005 L36.3698,4.3365 C36.4428,4.1975 36.5378,4.1105 36.6538,4.0735 C36.7698,4.0395 36.9068,4.0335 37.0638,4.0575 C37.3298,4.0975 37.6158,4.1755 37.9228,4.2905 C38.2288,4.4065 38.5268,4.5415 38.8178,4.6955 C39.7298,5.1795 40.3218,5.7425 40.5978,6.3885 C40.8728,7.0325 40.8338,7.6895 40.4798,8.3555 C40.3078,8.6795 40.1028,8.9445 39.8618,9.1505 C39.6208,9.3575 39.3498,9.5015 39.0488,9.5825 C38.7478,9.6645 38.4168,9.6745 38.0558,9.6145 C37.6938,9.5535 37.3118,9.4165 36.9098,9.2025 L36.2058,8.8295 L35.2398,10.6525 Z" id="Fill-13" fill="#FCF4F0"></path>
                            <path d="M7.7498,42.2065 C3.5058,38.2165 0.8558,32.5505 0.8558,26.2665 C0.8558,22.3225 1.8988,18.6235 3.7248,15.4295" id="Stroke-15" stroke="#FCF4F0" stroke-width="1.5" stroke-linecap="round"></path>
                            <path d="M41.1317,15.2319 C43.4907,18.7229 44.8677,22.9329 44.8677,27.4639 C44.8677,33.5049 42.4197,38.9749 38.4607,42.9339" id="Stroke-17" stroke="#FCF4F0" stroke-width="1.5" stroke-linecap="round"></path>
                            <polyline id="Stroke-19" stroke="#FCF4F0" stroke-width="1.5" stroke-linecap="round" points="8.7118 36.8676 8.2718 42.7636 2.3748 42.3246"></polyline>
                            <polyline id="Stroke-21" stroke="#FCF4F0" stroke-width="1.5" stroke-linecap="round" points="38.972 20.2797 40.936 14.7017 46.514 16.6667"></polyline>
                        </g>
                    </g>
                </g>
            </g>
        </g>
    </g>
</svg>