<?xml version="1.0" encoding="UTF-8"?>
<svg width="64px" height="64px" viewBox="0 0 64 64" version="1.1" xmlns="http://www.w3.org/2000/svg" xmlns:xlink="http://www.w3.org/1999/xlink">
    <!-- Generator: Sketch 51.2 (57519) - http://www.bohemiancoding.com/sketch -->
    <title>Group</title>
    <desc>Created with Sketch.</desc>
    <defs>
        <polygon id="path-1" points="0 0.532 63.4687 0.532 63.4687 64 0 64"></polygon>
    </defs>
    <g id="Welcome" stroke="none" stroke-width="1" fill="none" fill-rule="evenodd">
        <g id="Homepage" transform="translate(-98.000000, -1565.000000)">
            <g id="Developed-features" transform="translate(98.000000, 1187.000000)">
                <g id="Icons" transform="translate(0.000000, 144.000000)">
                    <g id="Group" transform="translate(0.000000, 233.000000)">
                        <g id="Group-3" transform="translate(0.000000, 0.468600)">
                            <mask id="mask-2" fill="white">
                                <use xlink:href="#path-1"></use>
                            </mask>
                            <g id="Clip-2"></g>
                            <path d="M63.4687,32.266 C63.4687,49.792 49.2607,64 31.7347,64 C14.2077,64 -0.0003,49.792 -0.0003,32.266 C-0.0003,14.74 14.2077,0.532 31.7347,0.532 C49.2607,0.532 63.4687,14.74 63.4687,32.266" id="Fill-1" fill="#86C7A4" mask="url(#mask-2)"></path>
                        </g>
                        <g id="Group-16" transform="translate(12.000000, 15.468600)" stroke="#FCF4F0" stroke-linecap="round" stroke-width="1.5">
                            <path d="M27.6093,15.4486 L35.9093,24.4116 C37.8913,26.5526 37.7633,29.8926 35.6233,31.8756 L35.0833,32.3756 C32.9423,34.3566 29.6013,34.2286 27.6193,32.0886 L19.3193,23.1256 C17.3373,20.9856 17.4653,17.6436 19.6063,15.6616 L20.1453,15.1616 C22.2853,13.1796 25.6273,13.3076 27.6093,15.4486 Z" id="Stroke-4"></path>
                            <path d="M22.3324,14.2211 C23.6064,17.0691 22.3314,20.4101 19.4824,21.6851 L9.0034,26.3731 C6.1564,27.6481 2.8144,26.3721 1.5404,23.5241" id="Stroke-6"></path>
                            <path d="M1.9203,24.183 C0.1653,21.604 0.8333,18.089 3.4133,16.334 L12.9043,9.876 C15.4843,8.121 18.9983,8.789 20.7533,11.369" id="Stroke-8"></path>
                            <path d="M22.0819,7.1459 L26.4779,5.6459" id="Stroke-10"></path>
                            <path d="M20.8725,0.3607 L19.3895,4.7627" id="Stroke-12"></path>
                            <path d="M13.122,1.4427 L15.976,5.1087" id="Stroke-14"></path>
                        </g>
                    </g>
                </g>
            </g>
        </g>
    </g>
</svg>