<?xml version="1.0" encoding="UTF-8"?>
<svg width="64px" height="64px" viewBox="0 0 64 64" version="1.1" xmlns="http://www.w3.org/2000/svg" xmlns:xlink="http://www.w3.org/1999/xlink">
    <!-- Generator: Sketch 51.2 (57519) - http://www.bohemiancoding.com/sketch -->
    <title>Group</title>
    <desc>Created with Sketch.</desc>
    <defs></defs>
    <g id="Welcome" stroke="none" stroke-width="1" fill="none" fill-rule="evenodd">
        <g id="Homepage" transform="translate(-520.000000, -1332.000000)">
            <g id="Developed-features" transform="translate(98.000000, 1187.000000)">
                <g id="Icons" transform="translate(0.000000, 144.000000)">
                    <g id="Group" transform="translate(422.000000, 1.000000)">
                        <path d="M63.4684,31.7343 C63.4684,49.2603 49.2604,63.4683 31.7344,63.4683 C14.2084,63.4683 0.0004,49.2603 0.0004,31.7343 C0.0004,14.2083 14.2084,0.0003 31.7344,0.0003 C49.2604,0.0003 63.4684,14.2083 63.4684,31.7343" id="Fill-1" fill="#86C7A4"></path>
                        <path d="M24.6681,19.3515 C24.6681,15.4495 27.8321,12.2855 31.7341,12.2855 C35.6371,12.2855 38.8011,15.4495 38.8011,19.3515 C38.8011,23.2535 35.6371,26.4175 31.7341,26.4175 C27.8321,26.4175 24.6681,23.2535 24.6681,19.3515 Z" id="Stroke-3" stroke="#FCF4F0" stroke-width="1.5" stroke-linecap="round"></path>
                        <path d="M31.7345,46.4013 L21.8495,46.4013 L21.8495,39.0993 C21.8495,33.7583 26.1785,29.4293 31.5195,29.4293 L31.8055,29.4293 C36.3275,29.4293 40.1235,32.5333 41.1815,36.7263" id="Stroke-5" stroke="#FCF4F0" stroke-width="1.5" stroke-linecap="round"></path>
                        <path d="M47.9225,50.4169 L35.4615,50.4169 C34.8685,50.4169 34.3875,49.9369 34.3875,49.3429 L34.3875,39.7959 C34.3875,39.2029 34.8685,38.7219 35.4615,38.7219 L47.9225,38.7219 C48.5165,38.7219 48.9975,39.2029 48.9975,39.7959 L48.9975,49.3429 C48.9975,49.9369 48.5165,50.4169 47.9225,50.4169" id="Fill-7" fill="#FCF4F0"></path>
                        <path d="M50.0294,46.6777 L43.4414,46.6777 C42.7904,46.6777 42.2624,46.1497 42.2624,45.4977 L42.2624,43.6507 C42.2624,42.9987 42.7904,42.4717 43.4414,42.4717 L50.0294,42.4717 C50.6804,42.4717 51.2084,42.9987 51.2084,43.6507 L51.2084,45.4977 C51.2084,46.1497 50.6804,46.6777 50.0294,46.6777 Z" id="Stroke-9" stroke="#86C7A4"></path>
                    </g>
                </g>
            </g>
        </g>
    </g>
</svg>