<?xml version="1.0" encoding="UTF-8"?>
<svg width="64px" height="64px" viewBox="0 0 64 64" version="1.1" xmlns="http://www.w3.org/2000/svg" xmlns:xlink="http://www.w3.org/1999/xlink">
    <!-- Generator: Sketch 51.2 (57519) - http://www.bohemiancoding.com/sketch -->
    <title>Group</title>
    <desc>Created with Sketch.</desc>
    <defs></defs>
    <g id="Welcome" stroke="none" stroke-width="1" fill="none" fill-rule="evenodd">
        <g id="Homepage" transform="translate(-520.000000, -1564.000000)">
            <g id="Developed-features" transform="translate(98.000000, 1187.000000)">
                <g id="Icons" transform="translate(0.000000, 144.000000)">
                    <g id="Group" transform="translate(422.000000, 233.000000)">
                        <path d="M63.4684,31.7343 C63.4684,49.2603 49.2604,63.4683 31.7344,63.4683 C14.2084,63.4683 0.0004,49.2603 0.0004,31.7343 C0.0004,14.2083 14.2084,0.0003 31.7344,0.0003 C49.2604,0.0003 63.4684,14.2083 63.4684,31.7343" id="Fill-1" fill="#86C7A4"></path>
                        <path d="M49.8859,31.7226 C49.8859,41.7476 41.7589,49.8736 31.7349,49.8736 C21.7099,49.8736 13.5829,41.7476 13.5829,31.7226 C13.5829,21.6986 21.7099,13.5716 31.7349,13.5716 C41.7589,13.5716 49.8859,21.6986 49.8859,31.7226 Z" id="Stroke-3" stroke="#FCF4F0" stroke-width="1.5" stroke-linecap="round"></path>
                        <path d="M28.1134,13.5712 C28.1134,11.5712 29.7344,9.9512 31.7344,9.9512 C33.7344,9.9512 35.3554,11.5712 35.3554,13.5712 C35.3554,15.5712 33.7344,17.1922 31.7344,17.1922 C29.7344,17.1922 28.1134,15.5712 28.1134,13.5712" id="Fill-5" fill="#FCF4F0"></path>
                        <path d="M28.1134,49.8739 C28.1134,47.8749 29.7344,46.2539 31.7344,46.2539 C33.7344,46.2539 35.3554,47.8749 35.3554,49.8739 C35.3554,51.8739 33.7344,53.4949 31.7344,53.4949 C29.7344,53.4949 28.1134,51.8739 28.1134,49.8739" id="Fill-7" fill="#FCF4F0"></path>
                        <path d="M49.8859,28.1025 C51.8859,28.1025 53.5069,29.7235 53.5069,31.7225 C53.5069,33.7225 51.8859,35.3435 49.8859,35.3435 C47.8859,35.3435 46.2649,33.7225 46.2649,31.7225 C46.2649,29.7235 47.8859,28.1025 49.8859,28.1025" id="Fill-9" fill="#FCF4F0"></path>
                        <path d="M13.5827,28.1025 C15.5827,28.1025 17.2037,29.7235 17.2037,31.7225 C17.2037,33.7225 15.5827,35.3435 13.5827,35.3435 C11.5827,35.3435 9.9617,33.7225 9.9617,31.7225 C9.9617,29.7235 11.5827,28.1025 13.5827,28.1025" id="Fill-11" fill="#FCF4F0"></path>
                        <path d="M42.1554,16.4257 C43.5824,15.0257 45.8754,15.0477 47.2754,16.4747 C48.6764,17.9027 48.6544,20.1947 47.2264,21.5947 C45.7994,22.9957 43.5074,22.9737 42.1064,21.5467 C40.7064,20.1187 40.7284,17.8267 42.1554,16.4257" id="Fill-13" fill="#FCF4F0"></path>
                        <path d="M16.2418,41.8505 C17.6688,40.4505 19.9618,40.4715 21.3618,41.8995 C22.7628,43.3275 22.7408,45.6195 21.3128,47.0195 C19.8858,48.4195 17.5938,48.3985 16.1928,46.9705 C14.7928,45.5435 14.8148,43.2505 16.2418,41.8505" id="Fill-15" fill="#FCF4F0"></path>
                        <path d="M47.6915,41.1005 C49.1845,42.4315 49.3155,44.7205 47.9845,46.2125 C46.6535,47.7045 44.3645,47.8365 42.8725,46.5055 C41.3795,45.1745 41.2485,42.8855 42.5795,41.3935 C43.9105,39.9015 46.1995,39.7705 47.6915,41.1005" id="Fill-17" fill="#FCF4F0"></path>
                        <path d="M20.5963,16.9403 C22.0883,18.2713 22.2203,20.5593 20.8883,22.0523 C19.5583,23.5443 17.2693,23.6753 15.7773,22.3443 C14.2843,21.0143 14.1533,18.7253 15.4843,17.2333 C16.8153,15.7403 19.1033,15.6093 20.5963,16.9403" id="Fill-19" fill="#FCF4F0"></path>
                        <path d="M24.2648,31.54 L31.6778,37.527 C31.7178,37.561 31.7778,37.55 31.8048,37.506 L38.9538,25.899" id="Stroke-21" stroke="#FCF4F0" stroke-width="2" stroke-linecap="round"></path>
                    </g>
                </g>
            </g>
        </g>
    </g>
</svg>