<?xml version="1.0" encoding="UTF-8"?>
<svg width="64px" height="64px" viewBox="0 0 64 64" version="1.1" xmlns="http://www.w3.org/2000/svg" xmlns:xlink="http://www.w3.org/1999/xlink">
    <!-- Generator: Sketch 51.2 (57519) - http://www.bohemiancoding.com/sketch -->
    <title>Group</title>
    <desc>Created with Sketch.</desc>
    <defs></defs>
    <g id="Welcome" stroke="none" stroke-width="1" fill="none" fill-rule="evenodd">
        <g id="Homepage" transform="translate(-940.000000, -1332.000000)">
            <g id="Developed-features" transform="translate(98.000000, 1187.000000)">
                <g id="Icons" transform="translate(0.000000, 144.000000)">
                    <g id="Group" transform="translate(842.000000, 0.000000)">
                        <g id="Group-7" transform="translate(0.000000, 0.468600)">
                            <path d="M63.4685,32.2657 C63.4685,49.7917 49.2605,63.9997 31.7345,63.9997 C14.2075,63.9997 0.0005,49.7917 0.0005,32.2657 C0.0005,14.7397 14.2075,0.5317 31.7345,0.5317 C49.2605,0.5317 63.4685,14.7397 63.4685,32.2657" id="Fill-1" fill="#86C7A4"></path>
                            <path d="M24.6682,19.8829 C24.6682,15.9809 27.8322,12.8169 31.7342,12.8169 C35.6372,12.8169 38.8002,15.9809 38.8002,19.8829 C38.8002,23.7849 35.6372,26.9489 31.7342,26.9489 C27.8322,26.9489 24.6682,23.7849 24.6682,19.8829 Z" id="Stroke-3" stroke="#FCF4F0" stroke-width="1.5" stroke-linecap="round"></path>
                            <path d="M31.7341,46.9327 L21.8501,46.9327 L21.8501,39.6307 C21.8501,34.2897 26.1791,29.9607 31.5191,29.9607 L31.8061,29.9607 C36.3271,29.9607 40.1241,33.0647 41.1821,37.2577" id="Stroke-5" stroke="#FCF4F0" stroke-width="1.5" stroke-linecap="round"></path>
                        </g>
                        <g id="Group-12" transform="translate(32.000000, 38.468600)" stroke="#FCF4F0" stroke-linecap="round">
                            <path d="M9.0607,4.6896 C9.0607,6.9656 7.2157,8.8116 4.9387,8.8116 C2.6627,8.8116 0.8167,6.9656 0.8167,4.6896 C0.8167,2.4136 2.6627,0.5676 4.9387,0.5676 C7.2157,0.5676 9.0607,2.4136 9.0607,4.6896 Z" id="Stroke-8" stroke-width="1.5"></path>
                            <path d="M9.6062,9.2823 L13.5402,12.6153" id="Stroke-10" stroke-width="2"></path>
                        </g>
                    </g>
                </g>
            </g>
        </g>
    </g>
</svg>